<?xml version="1.0" standalone="yes"?>
<svg xmlns="http://www.w3.org/2000/svg" version="1.1" width="170" height="170">
  <rect x="0" y="0" width="170" height="170" style="fill:#ffffff;shape-rendering:crispEdges;"/>
  <path x="0" y="0" style="fill:#000000;shape-rendering:crispEdges;" d="M30.51,30.51 V34.87 H34.87 V30.51 H30.51 Z M34.87,30.51 V34.87 H39.23 V30.51 H34.87 Z M39.23,30.51 V34.87 H43.59 V30.51 H39.23 Z M43.59,30.51 V34.87 H47.95 V30.51 H43.59 Z M47.95,30.51 V34.87 H52.31 V30.51 H47.95 Z M52.31,30.51 V34.87 H56.67 V30.51 H52.31 Z M56.67,30.51 V34.87 H61.03 V30.51 H56.67 Z M65.38,30.51 V34.87 H69.74 V30.51 H65.38 Z M74.10,30.51 V34.87 H78.46 V30.51 H74.10 Z M78.46,30.51 V34.87 H82.82 V30.51 H78.46 Z M82.82,30.51 V34.87 H87.18 V30.51 H82.82 Z M91.54,30.51 V34.87 H95.90 V30.51 H91.54 Z M100.26,30.51 V34.87 H104.62 V30.51 H100.26 Z M108.97,30.51 V34.87 H113.33 V30.51 H108.97 Z M113.33,30.51 V34.87 H117.69 V30.51 H113.33 Z M117.69,30.51 V34.87 H122.05 V30.51 H117.69 Z M122.05,30.51 V34.87 H126.41 V30.51 H122.05 Z M126.41,30.51 V34.87 H130.77 V30.51 H126.41 Z M130.77,30.51 V34.87 H135.13 V30.51 H130.77 Z M135.13,30.51 V34.87 H139.49 V30.51 H135.13 Z M30.51,34.87 V39.23 H34.87 V34.87 H30.51 Z M56.67,34.87 V39.23 H61.03 V34.87 H56.67 Z M69.74,34.87 V39.23 H74.10 V34.87 H69.74 Z M78.46,34.87 V39.23 H82.82 V34.87 H78.46 Z M91.54,34.87 V39.23 H95.90 V34.87 H91.54 Z M100.26,34.87 V39.23 H104.62 V34.87 H100.26 Z M108.97,34.87 V39.23 H113.33 V34.87 H108.97 Z M135.13,34.87 V39.23 H139.49 V34.87 H135.13 Z M30.51,39.23 V43.59 H34.87 V39.23 H30.51 Z M39.23,39.23 V43.59 H43.59 V39.23 H39.23 Z M43.59,39.23 V43.59 H47.95 V39.23 H43.59 Z M47.95,39.23 V43.59 H52.31 V39.23 H47.95 Z M56.67,39.23 V43.59 H61.03 V39.23 H56.67 Z M65.38,39.23 V43.59 H69.74 V39.23 H65.38 Z M78.46,39.23 V43.59 H82.82 V39.23 H78.46 Z M100.26,39.23 V43.59 H104.62 V39.23 H100.26 Z M108.97,39.23 V43.59 H113.33 V39.23 H108.97 Z M117.69,39.23 V43.59 H122.05 V39.23 H117.69 Z M122.05,39.23 V43.59 H126.41 V39.23 H122.05 Z M126.41,39.23 V43.59 H130.77 V39.23 H126.41 Z M135.13,39.23 V43.59 H139.49 V39.23 H135.13 Z M30.51,43.59 V47.95 H34.87 V43.59 H30.51 Z M39.23,43.59 V47.95 H43.59 V43.59 H39.23 Z M43.59,43.59 V47.95 H47.95 V43.59 H43.59 Z M47.95,43.59 V47.95 H52.31 V43.59 H47.95 Z M56.67,43.59 V47.95 H61.03 V43.59 H56.67 Z M74.10,43.59 V47.95 H78.46 V43.59 H74.10 Z M82.82,43.59 V47.95 H87.18 V43.59 H82.82 Z M87.18,43.59 V47.95 H91.54 V43.59 H87.18 Z M100.26,43.59 V47.95 H104.62 V43.59 H100.26 Z M108.97,43.59 V47.95 H113.33 V43.59 H108.97 Z M117.69,43.59 V47.95 H122.05 V43.59 H117.69 Z M122.05,43.59 V47.95 H126.41 V43.59 H122.05 Z M126.41,43.59 V47.95 H130.77 V43.59 H126.41 Z M135.13,43.59 V47.95 H139.49 V43.59 H135.13 Z M30.51,47.95 V52.31 H34.87 V47.95 H30.51 Z M39.23,47.95 V52.31 H43.59 V47.95 H39.23 Z M43.59,47.95 V52.31 H47.95 V47.95 H43.59 Z M47.95,47.95 V52.31 H52.31 V47.95 H47.95 Z M56.67,47.95 V52.31 H61.03 V47.95 H56.67 Z M69.74,47.95 V52.31 H74.10 V47.95 H69.74 Z M78.46,47.95 V52.31 H82.82 V47.95 H78.46 Z M82.82,47.95 V52.31 H87.18 V47.95 H82.82 Z M95.90,47.95 V52.31 H100.26 V47.95 H95.90 Z M108.97,47.95 V52.31 H113.33 V47.95 H108.97 Z M117.69,47.95 V52.31 H122.05 V47.95 H117.69 Z M122.05,47.95 V52.31 H126.41 V47.95 H122.05 Z M126.41,47.95 V52.31 H130.77 V47.95 H126.41 Z M135.13,47.95 V52.31 H139.49 V47.95 H135.13 Z M30.51,52.31 V56.67 H34.87 V52.31 H30.51 Z M56.67,52.31 V56.67 H61.03 V52.31 H56.67 Z M87.18,52.31 V56.67 H91.54 V52.31 H87.18 Z M100.26,52.31 V56.67 H104.62 V52.31 H100.26 Z M108.97,52.31 V56.67 H113.33 V52.31 H108.97 Z M135.13,52.31 V56.67 H139.49 V52.31 H135.13 Z M30.51,56.67 V61.03 H34.87 V56.67 H30.51 Z M34.87,56.67 V61.03 H39.23 V56.67 H34.87 Z M39.23,56.67 V61.03 H43.59 V56.67 H39.23 Z M43.59,56.67 V61.03 H47.95 V56.67 H43.59 Z M47.95,56.67 V61.03 H52.31 V56.67 H47.95 Z M52.31,56.67 V61.03 H56.67 V56.67 H52.31 Z M56.67,56.67 V61.03 H61.03 V56.67 H56.67 Z M65.38,56.67 V61.03 H69.74 V56.67 H65.38 Z M74.10,56.67 V61.03 H78.46 V56.67 H74.10 Z M82.82,56.67 V61.03 H87.18 V56.67 H82.82 Z M91.54,56.67 V61.03 H95.90 V56.67 H91.54 Z M100.26,56.67 V61.03 H104.62 V56.67 H100.26 Z M108.97,56.67 V61.03 H113.33 V56.67 H108.97 Z M113.33,56.67 V61.03 H117.69 V56.67 H113.33 Z M117.69,56.67 V61.03 H122.05 V56.67 H117.69 Z M122.05,56.67 V61.03 H126.41 V56.67 H122.05 Z M126.41,56.67 V61.03 H130.77 V56.67 H126.41 Z M130.77,56.67 V61.03 H135.13 V56.67 H130.77 Z M135.13,56.67 V61.03 H139.49 V56.67 H135.13 Z M65.38,61.03 V65.38 H69.74 V61.03 H65.38 Z M69.74,61.03 V65.38 H74.10 V61.03 H69.74 Z M78.46,61.03 V65.38 H82.82 V61.03 H78.46 Z M91.54,61.03 V65.38 H95.90 V61.03 H91.54 Z M30.51,65.38 V69.74 H34.87 V65.38 H30.51 Z M39.23,65.38 V69.74 H43.59 V65.38 H39.23 Z M52.31,65.38 V69.74 H56.67 V65.38 H52.31 Z M56.67,65.38 V69.74 H61.03 V65.38 H56.67 Z M69.74,65.38 V69.74 H74.10 V65.38 H69.74 Z M74.10,65.38 V69.74 H78.46 V65.38 H74.10 Z M78.46,65.38 V69.74 H82.82 V65.38 H78.46 Z M82.82,65.38 V69.74 H87.18 V65.38 H82.82 Z M87.18,65.38 V69.74 H91.54 V65.38 H87.18 Z M100.26,65.38 V69.74 H104.62 V65.38 H100.26 Z M104.62,65.38 V69.74 H108.97 V65.38 H104.62 Z M108.97,65.38 V69.74 H113.33 V65.38 H108.97 Z M126.41,65.38 V69.74 H130.77 V65.38 H126.41 Z M135.13,65.38 V69.74 H139.49 V65.38 H135.13 Z M34.87,69.74 V74.10 H39.23 V69.74 H34.87 Z M43.59,69.74 V74.10 H47.95 V69.74 H43.59 Z M47.95,69.74 V74.10 H52.31 V69.74 H47.95 Z M61.03,69.74 V74.10 H65.38 V69.74 H61.03 Z M65.38,69.74 V74.10 H69.74 V69.74 H65.38 Z M69.74,69.74 V74.10 H74.10 V69.74 H69.74 Z M74.10,69.74 V74.10 H78.46 V69.74 H74.10 Z M78.46,69.74 V74.10 H82.82 V69.74 H78.46 Z M82.82,69.74 V74.10 H87.18 V69.74 H82.82 Z M87.18,69.74 V74.10 H91.54 V69.74 H87.18 Z M91.54,69.74 V74.10 H95.90 V69.74 H91.54 Z M113.33,69.74 V74.10 H117.69 V69.74 H113.33 Z M122.05,69.74 V74.10 H126.41 V69.74 H122.05 Z M126.41,69.74 V74.10 H130.77 V69.74 H126.41 Z M30.51,74.10 V78.46 H34.87 V74.10 H30.51 Z M39.23,74.10 V78.46 H43.59 V74.10 H39.23 Z M43.59,74.10 V78.46 H47.95 V74.10 H43.59 Z M47.95,74.10 V78.46 H52.31 V74.10 H47.95 Z M52.31,74.10 V78.46 H56.67 V74.10 H52.31 Z M56.67,74.10 V78.46 H61.03 V74.10 H56.67 Z M61.03,74.10 V78.46 H65.38 V74.10 H61.03 Z M69.74,74.10 V78.46 H74.10 V74.10 H69.74 Z M91.54,74.10 V78.46 H95.90 V74.10 H91.54 Z M95.90,74.10 V78.46 H100.26 V74.10 H95.90 Z M104.62,74.10 V78.46 H108.97 V74.10 H104.62 Z M113.33,74.10 V78.46 H117.69 V74.10 H113.33 Z M122.05,74.10 V78.46 H126.41 V74.10 H122.05 Z M135.13,74.10 V78.46 H139.49 V74.10 H135.13 Z M30.51,78.46 V82.82 H34.87 V78.46 H30.51 Z M39.23,78.46 V82.82 H43.59 V78.46 H39.23 Z M43.59,78.46 V82.82 H47.95 V78.46 H43.59 Z M47.95,78.46 V82.82 H52.31 V78.46 H47.95 Z M52.31,78.46 V82.82 H56.67 V78.46 H52.31 Z M65.38,78.46 V82.82 H69.74 V78.46 H65.38 Z M82.82,78.46 V82.82 H87.18 V78.46 H82.82 Z M91.54,78.46 V82.82 H95.90 V78.46 H91.54 Z M100.26,78.46 V82.82 H104.62 V78.46 H100.26 Z M113.33,78.46 V82.82 H117.69 V78.46 H113.33 Z M126.41,78.46 V82.82 H130.77 V78.46 H126.41 Z M135.13,78.46 V82.82 H139.49 V78.46 H135.13 Z M52.31,82.82 V87.18 H56.67 V82.82 H52.31 Z M56.67,82.82 V87.18 H61.03 V82.82 H56.67 Z M61.03,82.82 V87.18 H65.38 V82.82 H61.03 Z M74.10,82.82 V87.18 H78.46 V82.82 H74.10 Z M78.46,82.82 V87.18 H82.82 V82.82 H78.46 Z M100.26,82.82 V87.18 H104.62 V82.82 H100.26 Z M104.62,82.82 V87.18 H108.97 V82.82 H104.62 Z M108.97,82.82 V87.18 H113.33 V82.82 H108.97 Z M113.33,82.82 V87.18 H117.69 V82.82 H113.33 Z M135.13,82.82 V87.18 H139.49 V82.82 H135.13 Z M30.51,87.18 V91.54 H34.87 V87.18 H30.51 Z M39.23,87.18 V91.54 H43.59 V87.18 H39.23 Z M52.31,87.18 V91.54 H56.67 V87.18 H52.31 Z M61.03,87.18 V91.54 H65.38 V87.18 H61.03 Z M65.38,87.18 V91.54 H69.74 V87.18 H65.38 Z M74.10,87.18 V91.54 H78.46 V87.18 H74.10 Z M82.82,87.18 V91.54 H87.18 V87.18 H82.82 Z M87.18,87.18 V91.54 H91.54 V87.18 H87.18 Z M95.90,87.18 V91.54 H100.26 V87.18 H95.90 Z M100.26,87.18 V91.54 H104.62 V87.18 H100.26 Z M108.97,87.18 V91.54 H113.33 V87.18 H108.97 Z M117.69,87.18 V91.54 H122.05 V87.18 H117.69 Z M122.05,87.18 V91.54 H126.41 V87.18 H122.05 Z M130.77,87.18 V91.54 H135.13 V87.18 H130.77 Z M135.13,87.18 V91.54 H139.49 V87.18 H135.13 Z M30.51,91.54 V95.90 H34.87 V91.54 H30.51 Z M52.31,91.54 V95.90 H56.67 V91.54 H52.31 Z M56.67,91.54 V95.90 H61.03 V91.54 H56.67 Z M74.10,91.54 V95.90 H78.46 V91.54 H74.10 Z M78.46,91.54 V95.90 H82.82 V91.54 H78.46 Z M82.82,91.54 V95.90 H87.18 V91.54 H82.82 Z M87.18,91.54 V95.90 H91.54 V91.54 H87.18 Z M108.97,91.54 V95.90 H113.33 V91.54 H108.97 Z M113.33,91.54 V95.90 H117.69 V91.54 H113.33 Z M117.69,91.54 V95.90 H122.05 V91.54 H117.69 Z M122.05,91.54 V95.90 H126.41 V91.54 H122.05 Z M30.51,95.90 V100.26 H34.87 V95.90 H30.51 Z M34.87,95.90 V100.26 H39.23 V95.90 H34.87 Z M43.59,95.90 V100.26 H47.95 V95.90 H43.59 Z M47.95,95.90 V100.26 H52.31 V95.90 H47.95 Z M65.38,95.90 V100.26 H69.74 V95.90 H65.38 Z M78.46,95.90 V100.26 H82.82 V95.90 H78.46 Z M91.54,95.90 V100.26 H95.90 V95.90 H91.54 Z M108.97,95.90 V100.26 H113.33 V95.90 H108.97 Z M113.33,95.90 V100.26 H117.69 V95.90 H113.33 Z M117.69,95.90 V100.26 H122.05 V95.90 H117.69 Z M126.41,95.90 V100.26 H130.77 V95.90 H126.41 Z M130.77,95.90 V100.26 H135.13 V95.90 H130.77 Z M43.59,100.26 V104.62 H47.95 V100.26 H43.59 Z M47.95,100.26 V104.62 H52.31 V100.26 H47.95 Z M52.31,100.26 V104.62 H56.67 V100.26 H52.31 Z M56.67,100.26 V104.62 H61.03 V100.26 H56.67 Z M65.38,100.26 V104.62 H69.74 V100.26 H65.38 Z M69.74,100.26 V104.62 H74.10 V100.26 H69.74 Z M74.10,100.26 V104.62 H78.46 V100.26 H74.10 Z M78.46,100.26 V104.62 H82.82 V100.26 H78.46 Z M82.82,100.26 V104.62 H87.18 V100.26 H82.82 Z M91.54,100.26 V104.62 H95.90 V100.26 H91.54 Z M95.90,100.26 V104.62 H100.26 V100.26 H95.90 Z M100.26,100.26 V104.62 H104.62 V100.26 H100.26 Z M104.62,100.26 V104.62 H108.97 V100.26 H104.62 Z M108.97,100.26 V104.62 H113.33 V100.26 H108.97 Z M113.33,100.26 V104.62 H117.69 V100.26 H113.33 Z M117.69,100.26 V104.62 H122.05 V100.26 H117.69 Z M122.05,100.26 V104.62 H126.41 V100.26 H122.05 Z M126.41,100.26 V104.62 H130.77 V100.26 H126.41 Z M135.13,100.26 V104.62 H139.49 V100.26 H135.13 Z M87.18,104.62 V108.97 H91.54 V104.62 H87.18 Z M91.54,104.62 V108.97 H95.90 V104.62 H91.54 Z M100.26,104.62 V108.97 H104.62 V104.62 H100.26 Z M117.69,104.62 V108.97 H122.05 V104.62 H117.69 Z M122.05,104.62 V108.97 H126.41 V104.62 H122.05 Z M126.41,104.62 V108.97 H130.77 V104.62 H126.41 Z M30.51,108.97 V113.33 H34.87 V108.97 H30.51 Z M34.87,108.97 V113.33 H39.23 V108.97 H34.87 Z M39.23,108.97 V113.33 H43.59 V108.97 H39.23 Z M43.59,108.97 V113.33 H47.95 V108.97 H43.59 Z M47.95,108.97 V113.33 H52.31 V108.97 H47.95 Z M52.31,108.97 V113.33 H56.67 V108.97 H52.31 Z M56.67,108.97 V113.33 H61.03 V108.97 H56.67 Z M74.10,108.97 V113.33 H78.46 V108.97 H74.10 Z M82.82,108.97 V113.33 H87.18 V108.97 H82.82 Z M91.54,108.97 V113.33 H95.90 V108.97 H91.54 Z M100.26,108.97 V113.33 H104.62 V108.97 H100.26 Z M108.97,108.97 V113.33 H113.33 V108.97 H108.97 Z M117.69,108.97 V113.33 H122.05 V108.97 H117.69 Z M126.41,108.97 V113.33 H130.77 V108.97 H126.41 Z M130.77,108.97 V113.33 H135.13 V108.97 H130.77 Z M30.51,113.33 V117.69 H34.87 V113.33 H30.51 Z M56.67,113.33 V117.69 H61.03 V113.33 H56.67 Z M65.38,113.33 V117.69 H69.74 V113.33 H65.38 Z M69.74,113.33 V117.69 H74.10 V113.33 H69.74 Z M78.46,113.33 V117.69 H82.82 V113.33 H78.46 Z M82.82,113.33 V117.69 H87.18 V113.33 H82.82 Z M87.18,113.33 V117.69 H91.54 V113.33 H87.18 Z M95.90,113.33 V117.69 H100.26 V113.33 H95.90 Z M100.26,113.33 V117.69 H104.62 V113.33 H100.26 Z M117.69,113.33 V117.69 H122.05 V113.33 H117.69 Z M126.41,113.33 V117.69 H130.77 V113.33 H126.41 Z M130.77,113.33 V117.69 H135.13 V113.33 H130.77 Z M30.51,117.69 V122.05 H34.87 V117.69 H30.51 Z M39.23,117.69 V122.05 H43.59 V117.69 H39.23 Z M43.59,117.69 V122.05 H47.95 V117.69 H43.59 Z M47.95,117.69 V122.05 H52.31 V117.69 H47.95 Z M56.67,117.69 V122.05 H61.03 V117.69 H56.67 Z M74.10,117.69 V122.05 H78.46 V117.69 H74.10 Z M78.46,117.69 V122.05 H82.82 V117.69 H78.46 Z M82.82,117.69 V122.05 H87.18 V117.69 H82.82 Z M95.90,117.69 V122.05 H100.26 V117.69 H95.90 Z M100.26,117.69 V122.05 H104.62 V117.69 H100.26 Z M104.62,117.69 V122.05 H108.97 V117.69 H104.62 Z M108.97,117.69 V122.05 H113.33 V117.69 H108.97 Z M113.33,117.69 V122.05 H117.69 V117.69 H113.33 Z M117.69,117.69 V122.05 H122.05 V117.69 H117.69 Z M122.05,117.69 V122.05 H126.41 V117.69 H122.05 Z M126.41,117.69 V122.05 H130.77 V117.69 H126.41 Z M135.13,117.69 V122.05 H139.49 V117.69 H135.13 Z M30.51,122.05 V126.41 H34.87 V122.05 H30.51 Z M39.23,122.05 V126.41 H43.59 V122.05 H39.23 Z M43.59,122.05 V126.41 H47.95 V122.05 H43.59 Z M47.95,122.05 V126.41 H52.31 V122.05 H47.95 Z M56.67,122.05 V126.41 H61.03 V122.05 H56.67 Z M74.10,122.05 V126.41 H78.46 V122.05 H74.10 Z M91.54,122.05 V126.41 H95.90 V122.05 H91.54 Z M100.26,122.05 V126.41 H104.62 V122.05 H100.26 Z M104.62,122.05 V126.41 H108.97 V122.05 H104.62 Z M108.97,122.05 V126.41 H113.33 V122.05 H108.97 Z M113.33,122.05 V126.41 H117.69 V122.05 H113.33 Z M126.41,122.05 V126.41 H130.77 V122.05 H126.41 Z M130.77,122.05 V126.41 H135.13 V122.05 H130.77 Z M30.51,126.41 V130.77 H34.87 V126.41 H30.51 Z M39.23,126.41 V130.77 H43.59 V126.41 H39.23 Z M43.59,126.41 V130.77 H47.95 V126.41 H43.59 Z M47.95,126.41 V130.77 H52.31 V126.41 H47.95 Z M56.67,126.41 V130.77 H61.03 V126.41 H56.67 Z M65.38,126.41 V130.77 H69.74 V126.41 H65.38 Z M91.54,126.41 V130.77 H95.90 V126.41 H91.54 Z M104.62,126.41 V130.77 H108.97 V126.41 H104.62 Z M30.51,130.77 V135.13 H34.87 V130.77 H30.51 Z M56.67,130.77 V135.13 H61.03 V130.77 H56.67 Z M69.74,130.77 V135.13 H74.10 V130.77 H69.74 Z M74.10,130.77 V135.13 H78.46 V130.77 H74.10 Z M78.46,130.77 V135.13 H82.82 V130.77 H78.46 Z M87.18,130.77 V135.13 H91.54 V130.77 H87.18 Z M100.26,130.77 V135.13 H104.62 V130.77 H100.26 Z M104.62,130.77 V135.13 H108.97 V130.77 H104.62 Z M126.41,130.77 V135.13 H130.77 V130.77 H126.41 Z M30.51,135.13 V139.49 H34.87 V135.13 H30.51 Z M34.87,135.13 V139.49 H39.23 V135.13 H34.87 Z M39.23,135.13 V139.49 H43.59 V135.13 H39.23 Z M43.59,135.13 V139.49 H47.95 V135.13 H43.59 Z M47.95,135.13 V139.49 H52.31 V135.13 H47.95 Z M52.31,135.13 V139.49 H56.67 V135.13 H52.31 Z M56.67,135.13 V139.49 H61.03 V135.13 H56.67 Z M65.38,135.13 V139.49 H69.74 V135.13 H65.38 Z M69.74,135.13 V139.49 H74.10 V135.13 H69.74 Z M74.10,135.13 V139.49 H78.46 V135.13 H74.10 Z M82.82,135.13 V139.49 H87.18 V135.13 H82.82 Z M87.18,135.13 V139.49 H91.54 V135.13 H87.18 Z M91.54,135.13 V139.49 H95.90 V135.13 H91.54 Z M95.90,135.13 V139.49 H100.26 V135.13 H95.90 Z M104.62,135.13 V139.49 H108.97 V135.13 H104.62 Z M108.97,135.13 V139.49 H113.33 V135.13 H108.97 Z M113.33,135.13 V139.49 H117.69 V135.13 H113.33 Z M126.41,135.13 V139.49 H130.77 V135.13 H126.41 Z M135.13,135.13 V139.49 H139.49 V135.13 H135.13 Z " /></svg>