<svg height="480pt" viewBox="-7 0 480 480.03269" width="480pt" xmlns="http://www.w3.org/2000/svg"><path d="m316.007812 325.894531c-7.1875-7.117187-18.066406-8.964843-27.199218-4.617187l-13.398438-13.390625c4.992188-10.523438 1.6875-23.117188-7.832031-29.832031-9.519531-6.714844-22.492187-5.605469-30.730469 2.632812l-5.65625 5.65625-107.511718-107.519531c-.875-.882813-1.941407-1.546875-3.121094-1.9375l-33.941406-11.289063c-2.875-.957031-6.046876-.210937-8.1875 1.933594-2.144532 2.140625-2.890626 5.3125-1.933594 8.1875l11.3125 33.945312c.390625 1.175782 1.050781 2.246094 1.929687 3.125l107.484375 107.449219-5.65625 5.65625c-8.3125 8.21875-9.46875 21.246094-2.730468 30.800781 6.742187 9.550782 19.398437 12.835938 29.933593 7.757813l13.398438 13.402344c-4.367188 9.144531-2.519531 20.042969 4.617187 27.238281l16.566406 16.570312c3.125 3.132813 8.199219 3.140626 11.332032.019532 3.136718-3.125 3.144531-8.199219.019531-11.332032l-16.566406-16.570312c-3.125-3.121094-3.125-8.1875 0-11.3125l5.65625-5.65625 79.199219 79.203125-5.65625 5.65625c-1.5 1.5-3.535157 2.34375-5.660157 2.34375-2.121093 0-4.160156-.84375-5.660156-2.34375l-4.847656-4.847656c-3.136719-3.035157-8.128907-2.992188-11.214844.09375-3.085937 3.085937-3.128906 8.078125-.097656 11.214843l4.847656 4.847657c9.375 9.382812 24.578125 9.382812 33.953125 0l11.3125-11.308594 22.625-22.625 11.3125-11.320313c9.371094-9.375 9.371094-24.570312 0-33.945312zm-11.304687 11.3125 67.890625 67.886719c1.5 1.5 2.34375 3.539062 2.34375 5.660156 0 2.125-.84375 4.160156-2.34375 5.660156l-5.65625 5.65625-79.199219-79.199218 5.652344-5.65625c3.125-3.125 8.1875-3.128906 11.3125-.007813zm-202.320313-134.417969-5.679687-16.976562 16.976563 5.65625 106.167968 106.128906-11.3125 11.3125zm100.496094 145.738282c-1.5-1.5-2.34375-3.539063-2.34375-5.660156 0-2.125.84375-4.160157 2.34375-5.660157l45.25-45.25c2.007813-2.078125 4.984375-2.914062 7.78125-2.179687 2.796875.730468 4.980469 2.914062 5.710938 5.714844.734375 2.796874-.101563 5.769531-2.179688 7.777343l-45.25 45.25c-3.121094 3.125-8.183594 3.128907-11.3125.007813zm62.226563-28.289063 11.3125 11.3125-28.289063 28.289063-5.65625 5.664062-11.3125-11.320312zm79.199219 124.457031-79.199219-79.199218 11.320312-11.328125 79.199219 79.199219zm0 0"/><path d="m392.128906 178.398438-50.90625 50.910156-22.628906-22.628906 50.910156-50.890626c3.125-3.121093 3.125-8.1875 0-11.3125-18.757812-18.707031-49.121094-18.707031-67.878906 0l-50.921875 50.914063c-12.460937 12.511719-12.460937 32.746094 0 45.253906l5.65625 5.65625c3.140625 3.035157 8.128906 2.988281 11.214844-.097656 3.085937-3.085937 3.128906-8.074219.097656-11.210937l-5.65625-5.65625c-6.25-6.25-6.25-16.382813 0-22.632813l50.921875-50.914063c10.324219-10.300781 26.304688-12.332031 38.878906-4.941406l-50.191406 50.199219c-3.125 3.125-3.125 8.1875 0 11.3125l56.566406 56.566406-16.96875 16.96875c-6.246094 6.25-16.382812 6.25-22.628906 0l-5.65625-5.65625c-3.140625-3.03125-8.128906-2.988281-11.214844.097657-3.085937 3.085937-3.128906 8.074218-.097656 11.214843l5.65625 5.65625c12.496094 12.496094 32.757812 12.496094 45.253906 0l50.90625-50.90625c18.742188-18.742187 18.742188-49.132812 0-67.878906-3.117187-3.128906-8.183594-3.140625-11.3125-.023437zm0 56.566406-22.625 22.632812-16.96875-16.96875 44.546875-44.542968c7.410157 12.574218 5.375 28.574218-4.953125 38.886718zm0 0"/><path d="m109.289062 393.382812c-12.496093 12.496094-12.496093 32.757813 0 45.253907 12.496094 12.496093 32.757813 12.496093 45.253907 0 12.496093-12.496094 12.496093-32.757813 0-45.253907-12.496094-12.496093-32.757813-12.496093-45.253907 0zm33.941407 33.933594c-6.332031 6.050782-16.296875 6.050782-22.628907 0-6.246093-6.246094-6.246093-16.375 0-22.625 6.25-6.246094 16.378907-6.246094 22.628907 0 6.246093 6.25 6.25 16.378906 0 22.625zm0 0"/><path d="m196.328125 385.527344-14.976563 14.984375c-1.84375 1.847656-2.671874 4.476562-2.214843 7.046875 3.707031 20.644531-6.417969 41.308594-25.007813 51.027344-18.589844 9.714843-41.335937 6.238281-56.171875-8.59375-14.832031-14.828126-18.320312-37.574219-8.613281-56.164063 9.710938-18.59375 30.371094-28.730469 51.015625-25.03125 2.578125.480469 5.222656-.351563 7.058594-2.222656l14.972656-14.96875c2.964844-3.144531 2.894531-8.070313-.15625-11.132813-3.046875-3.058594-7.976563-3.144531-11.128906-.195312l-12.144531 12.144531c-27.011719-2.992187-52.96875 11.398437-64.738282 35.890625-11.769531 24.496094-6.785156 53.753906 12.429688 72.972656s48.46875 24.203125 72.96875 12.4375c24.496094-11.765625 38.890625-37.722656 35.898437-64.730468l12.152344-12.152344c3.125-3.128906 3.121094-8.195313-.003906-11.316406-3.125-3.125-8.191407-3.121094-11.316407.003906zm0 0"/><path d="m453.097656 97.832031-202.632812-94.082031c-10.753906-5-23.167969-5-33.921875 0l-202.628907 94.082031c-12.027343 5.582031-17.25 19.855469-11.664062 31.878907 5.582031 12.023437 19.855469 17.246093 31.878906 11.664062l189.152344-87.832031c6.480469-3.015625 13.964844-3.015625 20.445312 0l189.152344 87.832031c12.027344 5.582031 26.300782.359375 31.882813-11.664062 5.582031-12.023438.359375-26.296876-11.664063-31.878907zm-2.847656 25.132813c-.894531 1.929687-2.515625 3.421875-4.511719 4.148437-1.996093.730469-4.195312.636719-6.121093-.257812l-189.152344-87.824219c-10.753906-5-23.167969-5-33.921875 0l-189.152344 87.824219c-4.003906 1.859375-8.765625.121093-10.625-3.886719-1.863281-4.003906-.125-8.765625 3.882813-10.625l202.632812-94.082031c6.480469-3.015625 13.964844-3.015625 20.445312 0l202.632813 94.082031c4.007813 1.859375 5.75 6.613281 3.890625 10.621094zm0 0"/><path d="m216.128906 120.796875c4.417969 0 8-3.582031 8-8s-3.582031-8-8-8h-32c-2.859375 0-5.5 1.527344-6.929687 4l-16 27.714844c-1.429688 2.472656-1.429688 5.523437 0 8l16 27.710937c1.429687 2.476563 4.070312 4 6.929687 4h32c2.859375 0 5.5-1.523437 6.925782-4l16-27.710937c2.175781-3.824219.855468-8.683594-2.953126-10.882813-3.808593-2.199218-8.675781-.914062-10.902343 2.882813l-13.6875 23.726562h-22.765625l-11.386719-19.710937 11.386719-19.730469zm0 0"/></svg>