<svg height="488pt" viewBox="0 -4 488 488" width="488pt" xmlns="http://www.w3.org/2000/svg"><path d="m432 464h-384c-4.417969 0-8 3.582031-8 8s3.582031 8 8 8h384c4.417969 0 8-3.582031 8-8s-3.582031-8-8-8zm0 0"/><path d="m88 288c22.089844 0 40 17.910156 40 40v32c0 4.417969 3.582031 8 8 8s8-3.582031 8-8v-32c.007812-24.769531-16.261719-46.601562-40-53.679688v-19.121093c18.625-3.800781 32.003906-20.1875 32-39.199219v-41.039062c14.121094-3.648438 23.988281-16.378907 24-30.960938v-24c0-4.417969-3.582031-8-8-8h-88c-26.507812 0-48 21.492188-48 48v32c.011719 14.582031 9.878906 27.3125 24 30.960938v51.359374c-23.738281 7.078126-40.0078125 28.910157-40 53.679688v112c0 4.417969 3.582031 8 8 8s8-3.582031 8-8v-112c0-22.089844 17.910156-40 40-40zm32-72c0 13.253906-10.746094 24-24 24h-40v-16h8c8.835938 0 16-7.164062 16-16v-32h40zm-88-24v-32c0-17.671875 14.328125-32 32-32h80v16c0 8.835938-7.164062 16-16 16h-56c-4.417969 0-8 3.582031-8 8v40h-16c-8.835938 0-16-7.164062-16-16zm24 64h32v16h-32zm0 0"/><path d="m456 232v-21.441406c19.53125-9.261719 31.984375-28.941406 32-50.558594v-8c0-30.929688-25.070312-56-56-56h-80c-11.324219-.054688-22.140625 4.695312-29.765625 13.066406s-11.34375 19.582032-10.234375 30.855469c2.078125 17.316406 14.9375 31.398437 32 35.039063v41.039062c-.003906 19.011719 13.375 35.398438 32 39.199219v19.121093c-23.738281 7.078126-40.007812 28.910157-40 53.679688v32c0 4.417969 3.582031 8 8 8s8-3.582031 8-8v-32c0-22.089844 17.910156-40 40-40h32c22.089844 0 40 17.910156 40 40v112c0 4.417969 3.582031 8 8 8s8-3.582031 8-8v-112c.007812-24.769531-16.261719-46.601562-40-53.679688v-19.679687c9.59375-3.390625 16.003906-12.464844 16-22.640625zm-128-93.601562c-.605469-6.738282 1.660156-13.417969 6.238281-18.398438 4.523438-5.058594 10.976563-7.964844 17.761719-8h80c22.089844 0 40 17.910156 40 40v8c-.011719 16.679688-10.375 31.601562-26 37.441406h-.640625c-3.730469 1.328125-7.640625 2.082032-11.597656 2.238282h-17.761719c-4.417969 0-8-3.582032-8-8v-23.679688c0-4.417969-3.582031-8-8-8h-46.640625c-12.710937.28125-23.617187-9.003906-25.359375-21.601562zm32 77.601562v-40h32v16c0 13.253906 10.746094 24 24 24h18.398438c1.921874 0 3.761718 0 5.601562-.480469v16.480469c0 4.417969-3.582031 8-8 8h-48c-13.253906 0-24-10.746094-24-24zm32 56v-16h32v16zm0 0"/><path d="m432 328c-4.417969 0-8 3.582031-8 8v72c0 13.253906-10.746094 24-24 24h-80v-32h64c4.417969 0 8-3.582031 8-8v-56c0-4.417969-3.582031-8-8-8s-8 3.582031-8 8v48h-80c-11.425781.011719-21.980469 6.117188-27.6875 16.015625s-5.707031 22.089844.007812 31.984375h-56.640624c5.714843-9.894531 5.714843-22.085938.007812-31.984375s-16.261719-16.003906-27.6875-16.015625h-80v-48c0-4.417969-3.582031-8-8-8s-8 3.582031-8 8v56c0 4.417969 3.582031 8 8 8h64v32h-80c-13.253906 0-24-10.746094-24-24v-72c0-4.417969-3.582031-8-8-8s-8 3.582031-8 8v72c0 22.089844 17.910156 40 40 40h320c22.089844 0 40-17.910156 40-40v-72c0-4.417969-3.582031-8-8-8zm-256 104v-32h8c8.835938 0 16 7.164062 16 16s-7.164062 16-16 16zm104-16c0-8.835938 7.164062-16 16-16h8v32h-8c-8.835938 0-16-7.164062-16-16zm0 0"/><path d="m88 96h168c17.671875 0 32-14.328125 32-32v-40c0-13.253906-10.746094-24-24-24h-112c-13.253906 0-24 10.746094-24 24v12.71875l-45.679688 45.601562c-2.269531 2.300782-2.933593 5.742188-1.679687 8.71875 1.226563 2.988282 4.128906 4.945313 7.359375 4.960938zm53.679688-50.320312c1.496093-1.507813 2.332031-3.554688 2.320312-5.679688v-16c0-4.417969 3.582031-8 8-8h112c4.417969 0 8 3.582031 8 8v40c0 8.835938-7.164062 16-16 16h-148.71875zm0 0"/><path d="m200 40h-32c-4.417969 0-8 3.582031-8 8s3.582031 8 8 8h32c4.417969 0 8-3.582031 8-8s-3.582031-8-8-8zm0 0"/><path d="m248 40h-16c-4.417969 0-8 3.582031-8 8s3.582031 8 8 8h16c4.417969 0 8-3.582031 8-8s-3.582031-8-8-8zm0 0"/><path d="m192 176c-13.253906 0-24 10.746094-24 24v80c0 13.253906 10.746094 24 24 24h44.238281l37.601563 45.121094c2.160156 2.589844 5.710937 3.550781 8.878906 2.398437 3.167969-1.144531 5.28125-4.152343 5.28125-7.519531v-40c13.253906 0 24-10.746094 24-24v-80c0-13.253906-10.746094-24-24-24zm104 24v80c0 4.417969-3.582031 8-8 8h-8c-4.417969 0-8 3.582031-8 8v25.921875l-25.839844-31.042969c-1.523437-1.828125-3.78125-2.882812-6.160156-2.878906h-48c-4.417969 0-8-3.582031-8-8v-80c0-4.417969 3.582031-8 8-8h96c4.417969 0 8 3.582031 8 8zm0 0"/><path d="m208 224h24c4.417969 0 8-3.582031 8-8s-3.582031-8-8-8h-24c-4.417969 0-8 3.582031-8 8s3.582031 8 8 8zm0 0"/><path d="m264 256h-56c-4.417969 0-8 3.582031-8 8s3.582031 8 8 8h56c4.417969 0 8-3.582031 8-8s-3.582031-8-8-8zm0 0"/><path d="m272 224h-16c-4.417969 0-8 3.582031-8 8s3.582031 8 8 8h16c4.417969 0 8-3.582031 8-8s-3.582031-8-8-8zm0 0"/></svg>