<svg height="480pt" viewBox="0 0 480.40679 480" width="480pt" xmlns="http://www.w3.org/2000/svg"><path d="m368 200.203125v-32c0-13.253906-10.746094-24-24-24h-30.160156c-2.507813-8.140625-5.804688-16.015625-9.839844-23.519531l21.359375-21.359375c9.359375-9.371094 9.359375-24.550781 0-33.921875l-22.558594-22.640625c-9.371093-9.355469-24.550781-9.355469-33.921875 0l-21.359375 21.441406c-7.5-4.035156-15.378906-7.332031-23.519531-9.839844v-30.160156c0-13.253906-10.746094-24-24-24h-32c-13.253906 0-24 10.746094-24 24v30.160156c-8.140625 2.507813-16.019531 5.804688-23.519531 9.839844l-21.359375-21.441406c-9.371094-9.355469-24.550782-9.355469-33.921875 0l-22.640625 22.640625c-9.355469 9.371094-9.355469 24.550781 0 33.921875l21.441406 21.359375c-4.035156 7.503906-7.332031 15.378906-9.839844 23.519531h-30.160156c-13.253906 0-24 10.746094-24 24v32c0 13.253906 10.746094 24 24 24h30.160156c1.121094 3.679687 2.480469 7.359375 3.917969 11.039063.949219 2.820312 3.382813 4.882812 6.320313 5.355468 2.9375.46875 5.894531-.730468 7.675781-3.113281s2.089843-5.558594.804687-8.242187c-1.964844-4.902344-3.621094-9.925782-4.957031-15.039063-.9375-3.625-4.257813-6.117187-8-6h-35.921875c-4.417969 0-8-3.582031-8-8v-32c0-4.417969 3.582031-8 8-8h36.160156c3.742188.117187 7.066406-2.375 8-6 2.789063-10.84375 7.097656-21.242187 12.800782-30.878906 1.839843-3.125 1.347656-7.097657-1.199219-9.679688l-25.839844-25.441406c-1.515625-1.5-2.367187-3.546875-2.367187-5.679687 0-2.132813.851562-4.179688 2.367187-5.679688l22.558594-22.558594c1.5-1.515625 3.546875-2.367187 5.679687-2.367187 2.132813 0 4.175782.851562 5.679688 2.367187l25.601562 25.597656c2.578125 2.550782 6.554688 3.042969 9.679688 1.199219 9.636718-5.699219 20.035156-10.007812 30.878906-12.796875 3.625-.9375 6.117188-4.257812 6-8v-36.082031c0-4.417969 3.582031-8 8-8h32c4.417969 0 8 3.582031 8 8v36.160156c-.117188 3.742188 2.375 7.066407 6 8 10.84375 2.789063 21.242188 7.097657 30.878906 12.800781 3.125 1.839844 7.101563 1.347657 9.679688-1.199218l25.441406-25.839844c1.503906-1.515625 3.546875-2.367188 5.679688-2.367188 2.132812 0 4.179687.851563 5.679687 2.367188l22.5625 22.558594c1.511719 1.5 2.363281 3.546875 2.363281 5.679687 0 2.132813-.851562 4.179688-2.363281 5.679688l-25.601563 25.601562c-2.546874 2.582031-3.042968 6.554688-1.199218 9.679688 5.699218 9.636719 10.007812 20.035156 12.800781 30.878906.933594 3.625 4.257813 6.117187 8 6h36.078125c4.417969 0 8 3.582031 8 8v32c0 4.417969-3.582031 8-8 8h-36.160156c-3.742188-.117187-7.066406 2.375-8 6-1.339844 5.113281-2.996094 10.136719-4.960938 15.039063-1.648437 4.089843.320313 8.738281 4.402344 10.402343.941406.371094 1.945312.5625 2.957031.558594 3.261719.015625 6.203125-1.945313 7.441407-4.960937 1.441406-3.679688 2.800781-7.359376 3.921874-11.039063h30.398438c13.253906 0 24-10.746094 24-24zm0 0"/><path d="m256 256.203125h-16v-14.960937c23.210938-22.75 30.351562-57.285157 18.0625-87.375-12.289062-30.089844-41.558594-49.753907-74.0625-49.753907s-61.773438 19.664063-74.0625 49.753907c-12.289062 30.089843-5.148438 64.625 18.0625 87.375v14.960937h-16c-30.929688 0-56 25.074219-56 56v160c0 4.417969 3.582031 8 8 8s8-3.582031 8-8v-160c0-22.089844 17.910156-40 40-40h144c22.089844 0 40 17.910156 40 40v160c0 4.417969 3.582031 8 8 8s8-3.582031 8-8v-160c0-30.925781-25.070312-56-56-56zm-114.640625-24c-19.792969-17.683594-26.617187-45.75-17.152344-70.546875 9.464844-24.796875 33.25-41.179688 59.792969-41.179688s50.328125 16.382813 59.792969 41.179688c9.464843 24.796875 2.640625 52.863281-17.152344 70.546875-1.675781 1.511719-2.636719 3.664063-2.640625 5.921875v18.078125h-80v-18.480469c-.113281-2.117187-1.0625-4.101562-2.640625-5.519531zm0 0"/><path d="m209.921875 288.203125c-4.285156-1.054687-8.617187 1.558594-9.683594 5.839844l-6.476562 26.160156h-19.523438l-6.238281-25.917969c-.59375-2.875-2.710938-5.191406-5.515625-6.039062-2.808594-.851563-5.851563-.097656-7.941406 1.964844-2.085938 2.058593-2.875 5.09375-2.0625 7.914062l8 30.71875-8.480469 89.679688c-.21875 2.546874.792969 5.042968 2.71875 6.71875l24 20.960937c3.019531 2.652344 7.542969 2.652344 10.5625 0l24-20.960937c1.925781-1.675782 2.9375-4.171876 2.71875-6.71875l-8-89.679688 8-30.71875c.574219-2.125.25-4.394531-.902344-6.273438-1.148437-1.875-3.023437-3.195312-5.175781-3.648437zm-25.921875 141.359375-16-13.359375 7.039062-80h17.28125l7.679688 80zm0 0"/><path d="m112 336.203125c-4.417969 0-8 3.582031-8 8v128c0 4.417969 3.582031 8 8 8s8-3.582031 8-8v-128c0-4.417969-3.582031-8-8-8zm0 0"/><path d="m256 336.203125c-4.417969 0-8 3.582031-8 8v128c0 4.417969 3.582031 8 8 8s8-3.582031 8-8v-128c0-4.417969-3.582031-8-8-8zm0 0"/><path d="m184 216.203125c17.671875 0 32-14.328125 32-32s-14.328125-32-32-32-32 14.328125-32 32 14.328125 32 32 32zm0-48c8.835938 0 16 7.164063 16 16s-7.164062 16-16 16-16-7.164063-16-16 7.164062-16 16-16zm0 0"/><path d="m478.960938 330.042969-16-27.679688c-1.054688-1.851562-2.808594-3.207031-4.863282-3.761719-2.058594-.554687-4.253906-.265624-6.097656.800782l-11.601562 6.722656c-2.542969-1.703125-5.21875-3.199219-8-4.480469v-13.441406c0-4.417969-3.582032-8-8-8h-32c-4.417969 0-8 3.582031-8 8v13.441406c-2.78125 1.277344-5.457032 2.773438-8 4.480469l-11.679688-6.722656c-3.824219-2.171875-8.683594-.847656-10.878906 2.960937l-16 27.679688c-1.074219 1.835937-1.375 4.023437-.835938 6.078125.542969 2.054687 1.878906 3.8125 3.714844 4.882812l11.679688 6.71875c-.320313 2.980469-.320313 5.984375 0 8.960938l-11.679688 6.71875c-1.835938 1.070312-3.171875 2.828125-3.714844 4.882812-.539062 2.058594-.238281 4.242188.835938 6.078125l16 27.679688c2.195312 3.808593 7.054687 5.132812 10.878906 2.960937l11.679688-6.71875c2.542968 1.703125 5.21875 3.199219 8 4.476563v13.441406c0 4.417969 3.582031 8 8 8h32c4.417968 0 8-3.582031 8-8v-13.441406c2.792968-1.257813 5.46875-2.757813 8-4.476563l11.679687 6.71875c1.847656 1.066406 4.039063 1.355469 6.097656.800782 2.058594-.554688 3.808594-1.910157 4.863281-3.761719l16-27.679688c1.070313-1.84375 1.359376-4.039062.800782-6.097656-.554688-2.054687-1.910156-3.804687-3.761719-4.863281l-11.597656-6.71875c0-1.519532 0-2.960938 0-4.480469s0-2.960937 0-4.480469l11.597656-6.71875c1.839844-1.070312 3.175781-2.828125 3.71875-4.882812.539063-2.054688.238281-4.242188-.835937-6.078125zm-30.960938 14.878906c.960938 4.808594.960938 9.753906 0 14.5625-.792969 3.414063.730469 6.949219 3.761719 8.71875l9.277343 5.359375-8 13.921875-9.277343-5.441406c-2.945313-1.6875-6.632813-1.332031-9.203125.878906-3.738282 3.167969-8.019532 5.636719-12.636719 7.28125-3.199219 1.117187-5.347656 4.132813-5.363281 7.519531v10.480469h-16v-10.800781c0-3.367188-2.109375-6.375-5.277344-7.519532-4.636719-1.609374-8.921875-4.078124-12.640625-7.28125-2.570313-2.210937-6.257813-2.566406-9.199219-.878906l-9.363281 5.441406-8-13.921874 9.363281-5.039063c2.929688-1.703125 4.46875-5.070313 3.839844-8.398437-.960938-4.808594-.960938-9.753907 0-14.5625.9375-3.535157-.644531-7.257813-3.839844-9.039063l-9.363281-5.359375 8-13.921875 9.363281 5.441406c2.941406 1.6875 6.628906 1.335938 9.199219-.878906 3.71875-3.203125 8.003906-5.671875 12.640625-7.28125 3.167969-1.144531 5.277344-4.152344 5.277344-7.519531v-10.480469h16v10.800781c.015625 3.386719 2.164062 6.402344 5.363281 7.519532 4.617187 1.644531 8.898437 4.113281 12.636719 7.28125 2.570312 2.214843 6.257812 2.566406 9.203125.878906l9.277343-5.441406 8 13.921874-9.277343 5.039063c-3.03125 1.769531-4.554688 5.304687-3.761719 8.71875zm0 0"/><path d="m408.558594 328.203125c-13.253906 0-24 10.746094-24 24s10.746094 24 24 24c13.257812 0 24-10.746094 24-24s-10.742188-24-24-24zm0 32c-4.417969 0-8-3.582031-8-8s3.582031-8 8-8c4.417968 0 8 3.582031 8 8s-3.582032 8-8 8zm0 0"/><path d="m476 91.402344-11.601562-6.71875c0-1.519532 0-2.960938 0-4.480469s0-2.960937 0-4.480469l11.601562-6.71875c1.851562-1.054687 3.207031-2.808594 3.761719-4.863281.554687-2.058594.265625-4.253906-.800781-6.097656l-16-27.679688c-1.054688-1.851562-2.808594-3.207031-4.863282-3.761719-2.058594-.554687-4.253906-.265624-6.097656.800782l-11.601562 6.722656c-2.542969-1.703125-5.21875-3.199219-8-4.480469v-13.441406c0-4.417969-3.582032-8-8-8h-32c-4.417969 0-8 3.582031-8 8v13.441406c-2.78125 1.277344-5.457032 2.773438-8 4.480469l-11.277344-6.722656c-3.824219-2.171875-8.683594-.847656-10.882813 2.960937l-16 27.679688c-1.074219 1.835937-1.375 4.023437-.832031 6.078125.539062 2.054687 1.875 3.8125 3.714844 4.882812l11.679687 6.71875c-.320312 2.980469-.320312 5.984375 0 8.960938l-11.679687 6.71875c-1.839844 1.070312-3.175782 2.828125-3.714844 4.882812-.542969 2.058594-.242188 4.242188.832031 6.078125l16 27.679688c2.199219 3.808593 7.058594 5.132812 10.882813 2.960937l11.679687-6.71875c2.542969 1.703125 5.21875 3.199219 8 4.476563v13.441406c0 4.417969 3.582031 8 8 8h32c4.417969 0 8-3.582031 8-8v-13.441406c2.789063-1.257813 5.46875-2.757813 8-4.476563l11.679688 6.71875c1.84375 1.066406 4.039062 1.355469 6.09375.800782 2.058593-.554688 3.808593-1.910157 4.867187-3.761719l16-27.679688c1.03125-1.902343 1.246094-4.144531.597656-6.207031-.648437-2.066406-2.105468-3.78125-4.039062-4.753906zm-28-18.480469c.960938 4.808594.960938 9.753906 0 14.5625-.792969 3.414063.730469 6.949219 3.761719 8.71875l9.277343 5.359375-8 13.921875-9.277343-5.441406c-2.945313-1.6875-6.632813-1.332031-9.203125.878906-3.738282 3.167969-8.019532 5.636719-12.636719 7.28125-3.199219 1.117187-5.347656 4.132813-5.363281 7.519531v10.480469h-16v-10.800781c0-3.367188-2.109375-6.375-5.277344-7.519532-4.636719-1.609374-8.921875-4.078124-12.640625-7.28125-2.570313-2.210937-6.257813-2.566406-9.199219-.878906l-9.363281 5.441406-8-13.921874 9.363281-5.039063c2.929688-1.703125 4.46875-5.070313 3.839844-8.398437-.960938-4.808594-.960938-9.753907 0-14.5625.9375-3.535157-.644531-7.257813-3.839844-9.039063l-9.363281-5.359375 8-13.921875 9.363281 5.441406c2.941406 1.6875 6.628906 1.335938 9.199219-.878906 3.71875-3.203125 8.003906-5.671875 12.640625-7.28125 3.167969-1.144531 5.277344-4.152344 5.277344-7.519531v-10.480469h16v10.800781c.015625 3.386719 2.164062 6.402344 5.363281 7.519532 4.617187 1.644531 8.898437 4.113281 12.636719 7.28125 2.570312 2.214843 6.257812 2.566406 9.203125.878906l9.277343-5.441406 8 13.921874-9.277343 5.039063c-3.03125 1.769531-4.554688 5.304687-3.761719 8.71875zm0 0"/><path d="m408.558594 56.203125c-13.253906 0-24 10.746094-24 24s10.746094 24 24 24c13.257812 0 24-10.746094 24-24s-10.742188-24-24-24zm0 32c-4.417969 0-8-3.582031-8-8s3.582031-8 8-8c4.417968 0 8 3.582031 8 8s-3.582032 8-8 8zm0 0"/></svg>