<svg viewBox="0 0 530 122" fill="none" xmlns="http://www.w3.org/2000/svg"><path d="M4.088 117V93.844h3.078v9.984h3.594c.365 0 .75-.031 1.156-.094a3.543 3.543 0 0 0 1.188-.453c.385-.239.745-.583 1.078-1.031.344-.448.635-1.052.875-1.812l2.125-6.594h2.969l-2.094 6.765c-.354 1.136-.813 2.084-1.375 2.844-.552.761-1.193 1.266-1.922 1.516.969.323 1.719.88 2.25 1.672.542.791.98 1.755 1.313 2.89L20.54 117h-3.218l-2.016-6.922c-.219-.771-.495-1.396-.828-1.875-.323-.479-.677-.838-1.063-1.078a3.28 3.28 0 0 0-1.203-.5 5.874 5.874 0 0 0-1.265-.141H7.165V117H4.088zm22.871-7.562v-7.985c0-1.167.209-2.234.625-3.203a7.01 7.01 0 0 1 1.75-2.469c.75-.687 1.651-1.219 2.704-1.594 1.062-.374 2.218-.562 3.468-.562 1.24 0 2.386.188 3.438.563 1.052.374 1.958.906 2.718 1.593.76.677 1.35 1.5 1.766 2.469.427.958.64 2.026.64 3.203v7.985c0 1.187-.218 2.265-.655 3.234a7.209 7.209 0 0 1-1.813 2.453c-.77.667-1.677 1.187-2.719 1.563-1.041.364-2.166.546-3.375.546-1.25 0-2.406-.182-3.468-.546-1.053-.376-1.954-.896-2.704-1.563a7.046 7.046 0 0 1-1.75-2.453c-.416-.969-.625-2.047-.625-3.234zm3.141-.36c0 .938.146 1.745.438 2.422.291.667.682 1.214 1.171 1.641.49.416 1.063.729 1.72.937a7.26 7.26 0 0 0 2.077.297 7.11 7.11 0 0 0 2.094-.297 5.108 5.108 0 0 0 1.719-.937c.5-.427.896-.974 1.187-1.641.292-.677.438-1.484.438-2.422v-7.266c0-.947-.146-1.755-.438-2.421-.291-.678-.682-1.23-1.172-1.657a4.477 4.477 0 0 0-1.734-.953 6.88 6.88 0 0 0-2.094-.312 7.05 7.05 0 0 0-2.11.312 4.35 4.35 0 0 0-1.702.953c-.48.428-.865.98-1.156 1.657-.292.666-.438 1.474-.438 2.421v7.266zM51.612 117V93.844h2.953l4.672 9.437 2.922 6.157h.203l2.844-6.157 4.609-9.437h2.86V117H69.58v-15.766h-.172l-2.11 4.485-3.89 7.859H61.08l-3.688-7.219-2.531-5.125h-.172V117h-3.078zm27.23 0l8.063-23.156h3.125L98.124 117h-3.25l-1.813-5.203h-9.203L82.061 117h-3.219zm6.016-8.016h7.234l-1.859-5.515-1.719-5.39h-.14l-1.672 5.39-1.844 5.515zM104.136 117V93.844h3.078v10.015h10.859V93.844h3.156V117h-3.156v-10.312h-10.859V117h-3.078zm23.058-2.891h1.719a5.88 5.88 0 0 0 1.344-1.39c.385-.552.703-1.25.953-2.094.26-.854.469-1.896.625-3.125.156-1.24.271-2.719.344-4.438l.359-9.218h14.625l.031 20.328h1.891V122h-3.047v-5h-15.812v5h-3.032v-7.891zm5.579.11h11.218V96.672h-8.625l-.328 6.64c-.062 1.5-.14 2.813-.234 3.938a28.383 28.383 0 0 1-.391 2.969c-.156.864-.364 1.62-.625 2.265a6.427 6.427 0 0 1-1.015 1.735zm21.59 2.781l8.062-23.156h3.125L173.644 117h-3.25l-1.813-5.203h-9.203L157.581 117h-3.218zm6.015-8.016h7.235l-1.86-5.515-1.719-5.39h-.14l-1.672 5.39-1.844 5.515zm31.18 8.016V93.844h17.094V117h-3.156V96.672h-10.86V117h-3.078zm24.559 0V93.844h9.594c1.114 0 2.078.208 2.89.625a6.211 6.211 0 0 1 2.047 1.625 6.782 6.782 0 0 1 1.219 2.219 7.75 7.75 0 0 1 .406 2.468c0 .823-.156 1.646-.469 2.469a7.451 7.451 0 0 1-1.296 2.219 6.612 6.612 0 0 1-2.032 1.609c-.802.417-1.724.625-2.765.625h-6.516V117h-3.078zm3.078-12.156h5.875c1.208 0 2.198-.36 2.969-1.078.771-.719 1.156-1.714 1.156-2.985 0-1.26-.385-2.26-1.156-3-.771-.74-1.761-1.11-2.969-1.11h-5.875v8.173zm19.262 4.594v-7.985c0-1.167.208-2.234.625-3.203.417-.969 1-1.792 1.75-2.469.75-.687 1.651-1.219 2.703-1.594 1.063-.374 2.219-.562 3.469-.562 1.239 0 2.385.188 3.437.563 1.052.374 1.959.906 2.719 1.593.76.677 1.349 1.5 1.766 2.469.427.958.64 2.026.64 3.203v7.985c0 1.187-.218 2.265-.656 3.234a7.211 7.211 0 0 1-1.812 2.453c-.771.667-1.678 1.187-2.719 1.563-1.042.364-2.167.546-3.375.546-1.25 0-2.406-.182-3.469-.546-1.052-.376-1.953-.896-2.703-1.563a7.05 7.05 0 0 1-1.75-2.453c-.417-.969-.625-2.047-.625-3.234zm3.141-.36c0 .938.145 1.745.437 2.422.292.667.682 1.214 1.172 1.641a4.905 4.905 0 0 0 1.719.937 7.255 7.255 0 0 0 2.078.297c.75 0 1.448-.099 2.094-.297a5.111 5.111 0 0 0 1.718-.937c.5-.427.896-.974 1.188-1.641.291-.677.437-1.484.437-2.422v-7.266c0-.947-.146-1.755-.437-2.421-.292-.678-.683-1.23-1.172-1.657a4.483 4.483 0 0 0-1.734-.953 6.889 6.889 0 0 0-2.094-.312c-.74 0-1.443.104-2.11.312a4.352 4.352 0 0 0-1.703.953c-.479.428-.864.98-1.156 1.657-.292.666-.437 1.474-.437 2.421v7.266zm21.605-2.625v-3.265a7.91 7.91 0 0 1 .656-3.204 8.366 8.366 0 0 1 1.86-2.687c.812-.781 1.791-1.412 2.937-1.89 1.156-.48 2.464-.74 3.922-.782v-1h3.125v1c1.458.042 2.766.297 3.922.766 1.156.468 2.135 1.088 2.937 1.859a8.09 8.09 0 0 1 1.86 2.703 8.134 8.134 0 0 1 .656 3.235v3.171a8.913 8.913 0 0 1-.625 3.344 8.168 8.168 0 0 1-1.812 2.735c-.792.781-1.771 1.411-2.938 1.89-1.167.479-2.5.74-4 .781V117h-3.125v-1.891c-1.5-.041-2.833-.297-4-.765-1.167-.469-2.146-1.089-2.937-1.86a7.815 7.815 0 0 1-1.813-2.703 8.868 8.868 0 0 1-.625-3.328zm3.125-.172c0 .927.156 1.755.469 2.485a5.913 5.913 0 0 0 1.297 1.859c.552.51 1.208.906 1.968 1.187.761.271 1.599.422 2.516.454V97.469c-.948.031-1.802.198-2.562.5a5.972 5.972 0 0 0-1.954 1.219 5.677 5.677 0 0 0-1.281 1.874c-.302.73-.453 1.542-.453 2.438v2.781zm9.375 5.985a8.401 8.401 0 0 0 2.5-.454c.781-.281 1.443-.677 1.985-1.187a5.728 5.728 0 0 0 1.281-1.859c.323-.73.484-1.558.484-2.485V103.5c0-.896-.151-1.708-.453-2.438a5.365 5.365 0 0 0-1.281-1.874 5.757 5.757 0 0 0-1.953-1.22c-.761-.301-1.615-.468-2.563-.5v14.798zM292.981 117V93.844h15.453v2.828h-12.36v7.344h10.579v2.796h-10.579v7.407h12.36V117h-15.453zm22.34-7.359v-8.469c0-1.167.229-2.214.687-3.14a7.479 7.479 0 0 1 1.828-2.376 7.79 7.79 0 0 1 2.657-1.515 9.823 9.823 0 0 1 3.187-.516c1.26 0 2.438.167 3.531.5a8.516 8.516 0 0 1 2.953 1.578l-1.546 2.406c-.605-.51-1.365-.911-2.282-1.203a8.64 8.64 0 0 0-2.656-.437c-.646 0-1.286.104-1.922.312a4.63 4.63 0 0 0-1.687.938c-.49.416-.886.963-1.188 1.64-.302.667-.453 1.485-.453 2.453v7.235c0 .937.156 1.75.469 2.437.312.677.713 1.23 1.203 1.657.5.416 1.057.729 1.672.937a5.933 5.933 0 0 0 1.828.297c.875 0 1.766-.12 2.672-.359a6.616 6.616 0 0 0 2.437-1.25l1.485 2.375c-.719.583-1.651 1.078-2.797 1.484-1.146.406-2.386.609-3.719.609a9.988 9.988 0 0 1-3.203-.515 8.042 8.042 0 0 1-2.672-1.485 7.231 7.231 0 0 1-1.812-2.39c-.448-.948-.672-2.016-.672-3.203zm21.527 0v-8.469c0-1.167.229-2.214.688-3.14a7.464 7.464 0 0 1 1.828-2.376 7.785 7.785 0 0 1 2.656-1.515 9.83 9.83 0 0 1 3.188-.516c1.26 0 2.437.167 3.531.5a8.516 8.516 0 0 1 2.953 1.578l-1.547 2.406c-.604-.51-1.365-.911-2.281-1.203a8.646 8.646 0 0 0-2.656-.437c-.646 0-1.287.104-1.922.312a4.634 4.634 0 0 0-1.688.938c-.489.416-.885.963-1.187 1.64-.302.667-.453 1.485-.453 2.453v7.235c0 .937.156 1.75.468 2.437.313.677.714 1.23 1.203 1.657.5.416 1.058.729 1.672.937a5.938 5.938 0 0 0 1.828.297c.875 0 1.766-.12 2.672-.359a6.62 6.62 0 0 0 2.438-1.25l1.484 2.375c-.719.583-1.651 1.078-2.797 1.484-1.146.406-2.385.609-3.718.609a9.994 9.994 0 0 1-3.204-.515 8.047 8.047 0 0 1-2.671-1.485 7.234 7.234 0 0 1-1.813-2.39c-.448-.948-.672-2.016-.672-3.203zM358.532 117V93.844h3.078v17.703h.25l2.953-4.625 8.438-13.078h2.984V117h-3.078V99.047h-.25l-3.344 5.391L361.454 117h-2.922zm25.246-7.562v-7.985c0-1.167.208-2.234.625-3.203.417-.969 1-1.792 1.75-2.469.75-.687 1.651-1.219 2.703-1.594 1.063-.374 2.219-.562 3.469-.562 1.24 0 2.385.188 3.438.563 1.052.374 1.958.906 2.718 1.593a6.916 6.916 0 0 1 1.766 2.469c.427.958.641 2.026.641 3.203v7.985c0 1.187-.219 2.265-.657 3.234a7.198 7.198 0 0 1-1.812 2.453c-.771.667-1.677 1.187-2.719 1.563-1.042.364-2.167.546-3.375.546-1.25 0-2.406-.182-3.469-.546-1.052-.376-1.953-.896-2.703-1.563a7.05 7.05 0 0 1-1.75-2.453c-.417-.969-.625-2.047-.625-3.234zm3.141-.36c0 .938.146 1.745.437 2.422.292.667.683 1.214 1.172 1.641.49.416 1.063.729 1.719.937a7.26 7.26 0 0 0 2.078.297c.75 0 1.448-.099 2.094-.297a5.107 5.107 0 0 0 1.719-.937c.5-.427.895-.974 1.187-1.641.292-.677.438-1.484.438-2.422v-7.266c0-.947-.146-1.755-.438-2.421-.292-.678-.682-1.23-1.172-1.657a4.476 4.476 0 0 0-1.734-.953 6.88 6.88 0 0 0-2.094-.312c-.74 0-1.443.104-2.109.312a4.345 4.345 0 0 0-1.703.953c-.48.428-.865.98-1.157 1.657-.291.666-.437 1.474-.437 2.421v7.266zM408.306 117V93.844h3.078v10.015h10.859V93.844h3.156V117h-3.156v-10.312h-10.859V117h-3.078zm23.168 0l8.062-23.156h3.125L450.755 117h-3.25l-1.812-5.203h-9.204L434.693 117h-3.219zm6.015-8.016h7.235l-1.86-5.515-1.718-5.39h-.141l-1.672 5.39-1.844 5.515zm17.387 6.125a9.965 9.965 0 0 0 2.063-1.406c.594-.531 1.083-1.224 1.469-2.078.395-.854.687-1.906.875-3.156.197-1.261.296-2.818.296-4.672v-9.953h14.25V117h-3.171V96.672h-7.985v7.312c0 2.177-.14 4.042-.422 5.594-.281 1.542-.698 2.844-1.25 3.906-.552 1.063-1.229 1.938-2.031 2.625a10.4 10.4 0 0 1-2.75 1.657l-1.344-2.657zm26.512-5.671v-7.985c0-1.167.208-2.234.625-3.203.417-.969 1-1.792 1.75-2.469.75-.687 1.651-1.219 2.703-1.594 1.063-.374 2.219-.562 3.469-.562 1.24 0 2.385.188 3.437.563 1.053.374 1.959.906 2.719 1.593a6.916 6.916 0 0 1 1.766 2.469c.427.958.64 2.026.64 3.203v7.985c0 1.187-.218 2.265-.656 3.234a7.198 7.198 0 0 1-1.812 2.453c-.771.667-1.677 1.187-2.719 1.563-1.042.364-2.167.546-3.375.546-1.25 0-2.406-.182-3.469-.546-1.052-.376-1.953-.896-2.703-1.563a7.05 7.05 0 0 1-1.75-2.453c-.417-.969-.625-2.047-.625-3.234zm3.141-.36c0 .938.146 1.745.437 2.422.292.667.683 1.214 1.172 1.641.49.416 1.063.729 1.719.937a7.26 7.26 0 0 0 2.078.297c.75 0 1.448-.099 2.094-.297a5.102 5.102 0 0 0 1.718-.937c.5-.427.896-.974 1.188-1.641.292-.677.437-1.484.437-2.422v-7.266c0-.947-.145-1.755-.437-2.421-.292-.678-.682-1.23-1.172-1.657a4.476 4.476 0 0 0-1.734-.953 6.884 6.884 0 0 0-2.094-.312c-.74 0-1.443.104-2.109.312a4.356 4.356 0 0 0-1.704.953c-.479.428-.864.98-1.156 1.657-.291.666-.437 1.474-.437 2.421v7.266zm21.48 7.922V93.844h9.594c1.052 0 1.985.166 2.797.5.823.333 1.516.786 2.078 1.36.573.562 1 1.213 1.281 1.952.292.73.438 1.5.438 2.313 0 .916-.214 1.817-.641 2.703-.427.875-1.166 1.609-2.218 2.203 1.125.583 1.942 1.37 2.453 2.359.51.98.765 1.969.765 2.969 0 .833-.14 1.656-.422 2.469a6.339 6.339 0 0 1-1.234 2.156c-.542.636-1.229 1.156-2.062 1.563-.834.406-1.787.609-2.86.609h-9.969zm3.11-2.781h6.25c1.375 0 2.406-.349 3.094-1.047.697-.698 1.046-1.688 1.046-2.969 0-.625-.119-1.177-.359-1.656a3.613 3.613 0 0 0-.937-1.219 4.133 4.133 0 0 0-1.344-.781 4.65 4.65 0 0 0-1.563-.266h-6.187v7.938zm0-10.719h6.156c.51 0 1-.073 1.469-.219a3.42 3.42 0 0 0 1.234-.656c.354-.292.636-.656.844-1.094.219-.437.328-.937.328-1.5 0-1.208-.391-2.068-1.172-2.578-.771-.52-1.76-.781-2.969-.781h-5.89v6.828zM1.313 72L25.5 2.531h9.375L59.156 72h-9.75L43.97 56.39H16.36L10.97 72H1.313zm18.046-24.047h21.703l-5.578-16.547-5.156-16.172h-.422l-5.015 16.172-5.532 16.547zM66.844 72V2.531h9.281v61.125h37.078V72h-46.36zm53.906 0V2.531h9.281v61.125h37.078V72H120.75zm49.875-7.969l5.25-6.656c3.094 2.156 6.359 3.844 9.797 5.063a32.64 32.64 0 0 0 10.64 1.78c4.688 0 8.376-1 11.063-3 2.719-2.03 4.078-4.859 4.078-8.484 0-2.28-.531-4.14-1.594-5.578-1.031-1.437-2.375-2.593-4.031-3.468-1.625-.876-3.437-1.547-5.437-2.016-1.969-.5-3.891-.938-5.766-1.313a64.723 64.723 0 0 1-7.969-2.062c-2.562-.875-4.828-2.047-6.797-3.516-1.937-1.468-3.515-3.297-4.734-5.484-1.188-2.188-1.781-4.89-1.781-8.11 0-2.875.515-5.546 1.547-8.015 1.062-2.469 2.562-4.563 4.5-6.281 1.968-1.75 4.328-3.125 7.078-4.125 2.75-1.032 5.859-1.547 9.328-1.547 4.031 0 7.969.375 11.812 1.125 3.844.719 7.5 2.172 10.969 4.36l-4.312 7.874c-2.969-1.75-6.047-3-9.235-3.75-3.187-.75-6.297-1.125-9.328-1.125-1.812 0-3.531.235-5.156.703-1.594.469-3 1.188-4.219 2.156-1.187.97-2.14 2.204-2.859 3.704-.688 1.5-1.031 3.218-1.031 5.156 0 1.937.499 3.515 1.5 4.734 1 1.188 2.265 2.172 3.796 2.953a25.648 25.648 0 0 0 5.063 1.875c1.812.47 3.515.875 5.109 1.22 2.906.655 5.735 1.405 8.485 2.25 2.75.843 5.203 2.015 7.359 3.515 2.156 1.468 3.891 3.375 5.203 5.718 1.313 2.344 1.969 5.36 1.969 9.047 0 3.094-.594 5.875-1.781 8.344-1.157 2.469-2.829 4.563-5.016 6.281-2.188 1.688-4.797 2.985-7.828 3.891-3.031.906-6.391 1.36-10.078 1.36-4.781 0-9.266-.672-13.453-2.016-4.188-1.375-8.235-3.563-12.141-6.563zM230.109 72V2.531h46.36v8.485h-37.078v22.03h31.734v8.392h-31.734v22.218h37.078V72h-46.36zm55.782 0V2.531h28.781c3.469 0 6.453.625 8.953 1.875 2.531 1.25 4.594 2.875 6.187 4.875a18.451 18.451 0 0 1 3.516 6.656 25.052 25.052 0 0 1 1.125 7.407c0 1.937-.265 3.86-.797 5.765a19.456 19.456 0 0 1-2.437 5.391 23.387 23.387 0 0 1-3.891 4.594 17.69 17.69 0 0 1-5.156 3.281L335.156 72h-10.312l-11.719-27.89h-18V72h-9.234zm9.234-36.469h17.672c3.656 0 6.625-1.078 8.906-3.234 2.313-2.156 3.469-5.14 3.469-8.953 0-3.782-1.156-6.782-3.469-9-2.312-2.219-5.281-3.328-8.906-3.328h-17.672V35.53zm43.641-33h10.172l10.218 32.532 6.75 22.593h.61l7.031-23.765 9.891-31.36h10.218L371.25 72h-10.078L338.766 2.531zM402.75 72V2.531h9.281V72h-9.281zm22.828-22.078V24.516c0-3.5.688-6.641 2.063-9.422 1.375-2.781 3.203-5.156 5.484-7.125 2.281-2 4.938-3.516 7.969-4.547 3.031-1.031 6.219-1.547 9.562-1.547 3.782 0 7.313.5 10.594 1.5a25.56 25.56 0 0 1 8.859 4.734l-4.64 7.22c-1.813-1.532-4.094-2.735-6.844-3.61-2.719-.875-5.375-1.313-7.969-1.313-1.937 0-3.859.313-5.765.938a13.893 13.893 0 0 0-5.063 2.812c-1.469 1.25-2.656 2.89-3.562 4.922-.907 2-1.36 4.453-1.36 7.36V48.14c0 2.812.469 5.25 1.406 7.312.938 2.031 2.141 3.688 3.61 4.969a15.586 15.586 0 0 0 5.016 2.812c1.843.594 3.671.891 5.484.891 2.625 0 5.297-.36 8.016-1.078 2.718-.75 5.156-2 7.312-3.75l4.453 7.125c-2.156 1.75-4.953 3.234-8.391 4.453-3.437 1.219-7.156 1.828-11.156 1.828-3.343 0-6.547-.516-9.609-1.547-3.063-1.031-5.735-2.515-8.016-4.453-2.281-1.969-4.093-4.36-5.437-7.172-1.344-2.843-2.016-6.047-2.016-9.61zM479.297 72V2.531h46.359v8.485h-37.078v22.03h31.734v8.392h-31.734v22.218h37.078V72h-46.359z" fill="#222"/></svg>