<svg width="530" height="122" viewBox="0 0 530 122" fill="none" xmlns="http://www.w3.org/2000/svg">
<path d="M4.08813 117V93.8438H7.16626V103.828H10.76C11.1246 103.828 11.51 103.797 11.9163 103.734C12.3225 103.661 12.7183 103.51 13.1038 103.281C13.4892 103.042 13.8486 102.698 14.1819 102.25C14.5256 101.802 14.8173 101.198 15.0569 100.438L17.1819 93.8438H20.1506L18.0569 100.609C17.7027 101.745 17.2444 102.693 16.6819 103.453C16.1298 104.214 15.4892 104.719 14.76 104.969C15.7288 105.292 16.4788 105.849 17.01 106.641C17.5517 107.432 17.9892 108.396 18.3225 109.531L20.5413 117H17.3225L15.3069 110.078C15.0881 109.307 14.8121 108.682 14.4788 108.203C14.1558 107.724 13.8017 107.365 13.4163 107.125C13.0413 106.875 12.6402 106.708 12.2131 106.625C11.7861 106.531 11.3642 106.484 10.9475 106.484H7.16626V117H4.08813ZM26.9594 109.438V101.453C26.9594 100.286 27.1677 99.2188 27.5844 98.25C28.0011 97.2812 28.5844 96.4583 29.3344 95.7812C30.0844 95.0938 30.9854 94.5625 32.0375 94.1875C33.1 93.8125 34.2563 93.625 35.5063 93.625C36.7458 93.625 37.8917 93.8125 38.9438 94.1875C39.9958 94.5625 40.9021 95.0938 41.6625 95.7812C42.4229 96.4583 43.0115 97.2812 43.4281 98.25C43.8552 99.2083 44.0688 100.276 44.0688 101.453V109.438C44.0688 110.625 43.85 111.703 43.4125 112.672C42.975 113.63 42.3708 114.448 41.6 115.125C40.8292 115.792 39.9229 116.312 38.8813 116.688C37.8396 117.052 36.7146 117.234 35.5063 117.234C34.2563 117.234 33.1 117.052 32.0375 116.688C30.9854 116.312 30.0844 115.792 29.3344 115.125C28.5844 114.448 28.0011 113.63 27.5844 112.672C27.1677 111.703 26.9594 110.625 26.9594 109.438ZM30.1 109.078C30.1 110.016 30.2458 110.823 30.5375 111.5C30.8292 112.167 31.2198 112.714 31.7094 113.141C32.199 113.557 32.7719 113.87 33.4281 114.078C34.0948 114.276 34.7875 114.375 35.5063 114.375C36.2563 114.375 36.9542 114.276 37.6 114.078C38.2458 113.87 38.8188 113.557 39.3188 113.141C39.8188 112.714 40.2146 112.167 40.5063 111.5C40.7979 110.823 40.9438 110.016 40.9438 109.078V101.812C40.9438 100.865 40.7979 100.057 40.5063 99.3906C40.2146 98.7135 39.824 98.1615 39.3344 97.7344C38.8448 97.2969 38.2667 96.9792 37.6 96.7812C36.9438 96.5729 36.2458 96.4688 35.5063 96.4688C34.7667 96.4688 34.0636 96.5729 33.3969 96.7812C32.7406 96.9792 32.1729 97.2969 31.6938 97.7344C31.2146 98.1615 30.8292 98.7135 30.5375 99.3906C30.2458 100.057 30.1 100.865 30.1 101.812V109.078ZM51.6119 117V93.8438H54.565L59.2369 103.281L62.1588 109.438H62.3619L65.2056 103.281L69.815 93.8438H72.6744V117H69.5806V101.234H69.4088L67.2994 105.719L63.4088 113.578H61.0806L57.3931 106.359L54.8619 101.234H54.69V117H51.6119ZM78.8425 117L86.905 93.8438H90.03L98.1238 117H94.8738L93.0613 111.797H83.8581L82.0613 117H78.8425ZM84.8581 108.984H92.0925L90.2331 103.469L88.5144 98.0781H88.3738L86.7019 103.469L84.8581 108.984ZM104.136 117V93.8438H107.214V103.859H118.073V93.8438H121.229V117H118.073V106.688H107.214V117H104.136ZM127.194 114.109H128.913C129.434 113.724 129.882 113.26 130.257 112.719C130.642 112.167 130.96 111.469 131.21 110.625C131.47 109.771 131.679 108.729 131.835 107.5C131.991 106.26 132.106 104.781 132.179 103.062L132.538 93.8438H147.163L147.194 114.172H149.085V122H146.038V117H130.226V122H127.194V114.109ZM132.773 114.219H143.991V96.6719H135.366L135.038 103.312C134.976 104.812 134.898 106.125 134.804 107.25C134.71 108.365 134.58 109.354 134.413 110.219C134.257 111.083 134.049 111.839 133.788 112.484C133.538 113.12 133.2 113.698 132.773 114.219ZM154.363 117L162.425 93.8438H165.55L173.644 117H170.394L168.581 111.797H159.378L157.581 117H154.363ZM160.378 108.984H167.613L165.753 103.469L164.034 98.0781H163.894L162.222 103.469L160.378 108.984ZM191.558 117V93.8438H208.652V117H205.496V96.6719H194.636V117H191.558ZM216.117 117V93.8438H225.711C226.825 93.8438 227.789 94.0521 228.601 94.4688C229.424 94.8854 230.106 95.4271 230.648 96.0938C231.19 96.75 231.596 97.4896 231.867 98.3125C232.138 99.125 232.273 99.9479 232.273 100.781C232.273 101.604 232.117 102.427 231.804 103.25C231.502 104.062 231.07 104.802 230.508 105.469C229.955 106.125 229.278 106.661 228.476 107.078C227.674 107.495 226.752 107.703 225.711 107.703H219.195V117H216.117ZM219.195 104.844H225.07C226.278 104.844 227.268 104.484 228.039 103.766C228.81 103.047 229.195 102.052 229.195 100.781C229.195 99.5208 228.81 98.5208 228.039 97.7812C227.268 97.0417 226.278 96.6719 225.07 96.6719H219.195V104.844ZM238.457 109.438V101.453C238.457 100.286 238.665 99.2188 239.082 98.25C239.499 97.2812 240.082 96.4583 240.832 95.7812C241.582 95.0938 242.483 94.5625 243.535 94.1875C244.598 93.8125 245.754 93.625 247.004 93.625C248.243 93.625 249.389 93.8125 250.441 94.1875C251.493 94.5625 252.4 95.0938 253.16 95.7812C253.92 96.4583 254.509 97.2812 254.926 98.25C255.353 99.2083 255.566 100.276 255.566 101.453V109.438C255.566 110.625 255.348 111.703 254.91 112.672C254.473 113.63 253.868 114.448 253.098 115.125C252.327 115.792 251.42 116.312 250.379 116.688C249.337 117.052 248.212 117.234 247.004 117.234C245.754 117.234 244.598 117.052 243.535 116.688C242.483 116.312 241.582 115.792 240.832 115.125C240.082 114.448 239.499 113.63 239.082 112.672C238.665 111.703 238.457 110.625 238.457 109.438ZM241.598 109.078C241.598 110.016 241.743 110.823 242.035 111.5C242.327 112.167 242.717 112.714 243.207 113.141C243.696 113.557 244.269 113.87 244.926 114.078C245.592 114.276 246.285 114.375 247.004 114.375C247.754 114.375 248.452 114.276 249.098 114.078C249.743 113.87 250.316 113.557 250.816 113.141C251.316 112.714 251.712 112.167 252.004 111.5C252.295 110.823 252.441 110.016 252.441 109.078V101.812C252.441 100.865 252.295 100.057 252.004 99.3906C251.712 98.7135 251.321 98.1615 250.832 97.7344C250.342 97.2969 249.764 96.9792 249.098 96.7812C248.441 96.5729 247.743 96.4688 247.004 96.4688C246.264 96.4688 245.561 96.5729 244.894 96.7812C244.238 96.9792 243.67 97.2969 243.191 97.7344C242.712 98.1615 242.327 98.7135 242.035 99.3906C241.743 100.057 241.598 100.865 241.598 101.812V109.078ZM263.203 106.453V103.188C263.203 102.052 263.422 100.984 263.859 99.9844C264.297 98.974 264.917 98.0781 265.719 97.2969C266.531 96.5156 267.51 95.8854 268.656 95.4062C269.812 94.9271 271.12 94.6667 272.578 94.625V93.625H275.703V94.625C277.161 94.6667 278.469 94.9219 279.625 95.3906C280.781 95.8594 281.76 96.4792 282.562 97.25C283.365 98.0208 283.984 98.9219 284.422 99.9531C284.859 100.974 285.078 102.052 285.078 103.188V106.359C285.078 107.547 284.87 108.661 284.453 109.703C284.036 110.734 283.432 111.646 282.641 112.438C281.849 113.219 280.87 113.849 279.703 114.328C278.536 114.807 277.203 115.068 275.703 115.109V117H272.578V115.109C271.078 115.068 269.745 114.812 268.578 114.344C267.411 113.875 266.432 113.255 265.641 112.484C264.849 111.714 264.245 110.812 263.828 109.781C263.411 108.74 263.203 107.63 263.203 106.453ZM266.328 106.281C266.328 107.208 266.484 108.036 266.797 108.766C267.12 109.484 267.552 110.104 268.094 110.625C268.646 111.135 269.302 111.531 270.062 111.812C270.823 112.083 271.661 112.234 272.578 112.266V97.4688C271.63 97.5 270.776 97.6667 270.016 97.9688C269.266 98.2604 268.615 98.6667 268.062 99.1875C267.521 99.7083 267.094 100.333 266.781 101.062C266.479 101.792 266.328 102.604 266.328 103.5V106.281ZM275.703 112.266C276.599 112.234 277.432 112.083 278.203 111.812C278.984 111.531 279.646 111.135 280.188 110.625C280.729 110.104 281.156 109.484 281.469 108.766C281.792 108.036 281.953 107.208 281.953 106.281V103.5C281.953 102.604 281.802 101.792 281.5 101.062C281.198 100.333 280.771 99.7083 280.219 99.1875C279.677 98.6667 279.026 98.2604 278.266 97.9688C277.505 97.6667 276.651 97.5 275.703 97.4688V112.266ZM292.981 117V93.8438H308.434V96.6719H296.074V104.016H306.653V106.812H296.074V114.219H308.434V117H292.981ZM315.321 109.641V101.172C315.321 100.005 315.55 98.9583 316.008 98.0312C316.466 97.1042 317.076 96.3125 317.836 95.6562C318.597 94.9896 319.482 94.4844 320.493 94.1406C321.503 93.7969 322.565 93.625 323.68 93.625C324.94 93.625 326.118 93.7917 327.211 94.125C328.305 94.4583 329.289 94.9844 330.164 95.7031L328.618 98.1094C328.013 97.599 327.253 97.1979 326.336 96.9062C325.43 96.6146 324.545 96.4688 323.68 96.4688C323.034 96.4688 322.394 96.5729 321.758 96.7812C321.123 96.9792 320.56 97.2917 320.071 97.7188C319.581 98.1354 319.185 98.6823 318.883 99.3594C318.581 100.026 318.43 100.844 318.43 101.812V109.047C318.43 109.984 318.586 110.797 318.899 111.484C319.211 112.161 319.612 112.714 320.102 113.141C320.602 113.557 321.159 113.87 321.774 114.078C322.388 114.276 322.998 114.375 323.602 114.375C324.477 114.375 325.368 114.255 326.274 114.016C327.18 113.766 327.993 113.349 328.711 112.766L330.196 115.141C329.477 115.724 328.545 116.219 327.399 116.625C326.253 117.031 325.013 117.234 323.68 117.234C322.565 117.234 321.498 117.062 320.477 116.719C319.456 116.375 318.565 115.88 317.805 115.234C317.045 114.578 316.44 113.781 315.993 112.844C315.545 111.896 315.321 110.828 315.321 109.641ZM336.848 109.641V101.172C336.848 100.005 337.077 98.9583 337.536 98.0312C337.994 97.1042 338.603 96.3125 339.364 95.6562C340.124 94.9896 341.01 94.4844 342.02 94.1406C343.03 93.7969 344.093 93.625 345.208 93.625C346.468 93.625 347.645 93.7917 348.739 94.125C349.833 94.4583 350.817 94.9844 351.692 95.7031L350.145 98.1094C349.541 97.599 348.78 97.1979 347.864 96.9062C346.958 96.6146 346.072 96.4688 345.208 96.4688C344.562 96.4688 343.921 96.5729 343.286 96.7812C342.65 96.9792 342.088 97.2917 341.598 97.7188C341.109 98.1354 340.713 98.6823 340.411 99.3594C340.109 100.026 339.958 100.844 339.958 101.812V109.047C339.958 109.984 340.114 110.797 340.426 111.484C340.739 112.161 341.14 112.714 341.629 113.141C342.129 113.557 342.687 113.87 343.301 114.078C343.916 114.276 344.525 114.375 345.129 114.375C346.004 114.375 346.895 114.255 347.801 114.016C348.708 113.766 349.52 113.349 350.239 112.766L351.723 115.141C351.004 115.724 350.072 116.219 348.926 116.625C347.78 117.031 346.541 117.234 345.208 117.234C344.093 117.234 343.025 117.062 342.004 116.719C340.984 116.375 340.093 115.88 339.333 115.234C338.572 114.578 337.968 113.781 337.52 112.844C337.072 111.896 336.848 110.828 336.848 109.641ZM358.532 117V93.8438H361.61V111.547H361.86L364.813 106.922L373.251 93.8438H376.235V117H373.157V99.0469H372.907L369.563 104.438L361.454 117H358.532ZM383.778 109.438V101.453C383.778 100.286 383.986 99.2188 384.403 98.25C384.82 97.2812 385.403 96.4583 386.153 95.7812C386.903 95.0938 387.804 94.5625 388.856 94.1875C389.919 93.8125 391.075 93.625 392.325 93.625C393.565 93.625 394.71 93.8125 395.763 94.1875C396.815 94.5625 397.721 95.0938 398.481 95.7812C399.242 96.4583 399.83 97.2812 400.247 98.25C400.674 99.2083 400.888 100.276 400.888 101.453V109.438C400.888 110.625 400.669 111.703 400.231 112.672C399.794 113.63 399.19 114.448 398.419 115.125C397.648 115.792 396.742 116.312 395.7 116.688C394.658 117.052 393.533 117.234 392.325 117.234C391.075 117.234 389.919 117.052 388.856 116.688C387.804 116.312 386.903 115.792 386.153 115.125C385.403 114.448 384.82 113.63 384.403 112.672C383.986 111.703 383.778 110.625 383.778 109.438ZM386.919 109.078C386.919 110.016 387.065 110.823 387.356 111.5C387.648 112.167 388.039 112.714 388.528 113.141C389.018 113.557 389.591 113.87 390.247 114.078C390.914 114.276 391.606 114.375 392.325 114.375C393.075 114.375 393.773 114.276 394.419 114.078C395.065 113.87 395.638 113.557 396.138 113.141C396.638 112.714 397.033 112.167 397.325 111.5C397.617 110.823 397.763 110.016 397.763 109.078V101.812C397.763 100.865 397.617 100.057 397.325 99.3906C397.033 98.7135 396.643 98.1615 396.153 97.7344C395.664 97.2969 395.085 96.9792 394.419 96.7812C393.763 96.5729 393.065 96.4688 392.325 96.4688C391.585 96.4688 390.882 96.5729 390.216 96.7812C389.559 96.9792 388.992 97.2969 388.513 97.7344C388.033 98.1615 387.648 98.7135 387.356 99.3906C387.065 100.057 386.919 100.865 386.919 101.812V109.078ZM408.306 117V93.8438H411.384V103.859H422.243V93.8438H425.399V117H422.243V106.688H411.384V117H408.306ZM431.474 117L439.536 93.8438H442.661L450.755 117H447.505L445.693 111.797H436.489L434.693 117H431.474ZM437.489 108.984H444.724L442.864 103.469L441.146 98.0781H441.005L439.333 103.469L437.489 108.984ZM454.876 115.109C455.658 114.703 456.345 114.234 456.939 113.703C457.533 113.172 458.022 112.479 458.408 111.625C458.803 110.771 459.095 109.719 459.283 108.469C459.48 107.208 459.579 105.651 459.579 103.797V93.8438H473.829V117H470.658V96.6719H462.673V103.984C462.673 106.161 462.533 108.026 462.251 109.578C461.97 111.12 461.553 112.422 461.001 113.484C460.449 114.547 459.772 115.422 458.97 116.109C458.168 116.786 457.251 117.339 456.22 117.766L454.876 115.109ZM481.388 109.438V101.453C481.388 100.286 481.596 99.2188 482.013 98.25C482.43 97.2812 483.013 96.4583 483.763 95.7812C484.513 95.0938 485.414 94.5625 486.466 94.1875C487.529 93.8125 488.685 93.625 489.935 93.625C491.175 93.625 492.32 93.8125 493.372 94.1875C494.425 94.5625 495.331 95.0938 496.091 95.7812C496.852 96.4583 497.44 97.2812 497.857 98.25C498.284 99.2083 498.497 100.276 498.497 101.453V109.438C498.497 110.625 498.279 111.703 497.841 112.672C497.404 113.63 496.8 114.448 496.029 115.125C495.258 115.792 494.352 116.312 493.31 116.688C492.268 117.052 491.143 117.234 489.935 117.234C488.685 117.234 487.529 117.052 486.466 116.688C485.414 116.312 484.513 115.792 483.763 115.125C483.013 114.448 482.43 113.63 482.013 112.672C481.596 111.703 481.388 110.625 481.388 109.438ZM484.529 109.078C484.529 110.016 484.675 110.823 484.966 111.5C485.258 112.167 485.649 112.714 486.138 113.141C486.628 113.557 487.201 113.87 487.857 114.078C488.524 114.276 489.216 114.375 489.935 114.375C490.685 114.375 491.383 114.276 492.029 114.078C492.675 113.87 493.247 113.557 493.747 113.141C494.247 112.714 494.643 112.167 494.935 111.5C495.227 110.823 495.372 110.016 495.372 109.078V101.812C495.372 100.865 495.227 100.057 494.935 99.3906C494.643 98.7135 494.253 98.1615 493.763 97.7344C493.274 97.2969 492.695 96.9792 492.029 96.7812C491.372 96.5729 490.675 96.4688 489.935 96.4688C489.195 96.4688 488.492 96.5729 487.826 96.7812C487.169 96.9792 486.602 97.2969 486.122 97.7344C485.643 98.1615 485.258 98.7135 484.966 99.3906C484.675 100.057 484.529 100.865 484.529 101.812V109.078ZM506.009 117V93.8438H515.603C516.655 93.8438 517.588 94.0104 518.4 94.3438C519.223 94.6771 519.916 95.1302 520.478 95.7031C521.051 96.2656 521.478 96.9167 521.759 97.6562C522.051 98.3854 522.197 99.1562 522.197 99.9688C522.197 100.885 521.983 101.786 521.556 102.672C521.129 103.547 520.39 104.281 519.338 104.875C520.463 105.458 521.28 106.245 521.791 107.234C522.301 108.214 522.556 109.203 522.556 110.203C522.556 111.036 522.416 111.859 522.134 112.672C521.864 113.474 521.452 114.193 520.9 114.828C520.358 115.464 519.671 115.984 518.838 116.391C518.004 116.797 517.051 117 515.978 117H506.009ZM509.119 114.219H515.369C516.744 114.219 517.775 113.87 518.463 113.172C519.16 112.474 519.509 111.484 519.509 110.203C519.509 109.578 519.39 109.026 519.15 108.547C518.921 108.068 518.608 107.661 518.213 107.328C517.817 106.984 517.369 106.724 516.869 106.547C516.369 106.37 515.848 106.281 515.306 106.281H509.119V114.219ZM509.119 103.5H515.275C515.785 103.5 516.275 103.427 516.744 103.281C517.223 103.135 517.634 102.917 517.978 102.625C518.332 102.333 518.614 101.969 518.822 101.531C519.041 101.094 519.15 100.594 519.15 100.031C519.15 98.8229 518.759 97.9635 517.978 97.4531C517.207 96.9323 516.218 96.6719 515.009 96.6719H509.119V103.5Z" fill="#222222"/>
<path d="M1.3125 72L25.5 2.53125H34.875L59.1562 72H49.4062L43.9688 56.3906H16.3594L10.9688 72H1.3125ZM19.3594 47.9531H41.0625L35.4844 31.4062L30.3281 15.2344H29.9062L24.8906 31.4062L19.3594 47.9531ZM66.8438 72V2.53125H76.125V63.6562H113.203V72H66.8438ZM120.75 72V2.53125H130.031V63.6562H167.109V72H120.75ZM170.625 64.0312L175.875 57.375C178.969 59.5312 182.234 61.2188 185.672 62.4375C189.141 63.625 192.688 64.2188 196.312 64.2188C201 64.2188 204.688 63.2188 207.375 61.2188C210.094 59.1875 211.453 56.3594 211.453 52.7344C211.453 50.4531 210.922 48.5937 209.859 47.1562C208.828 45.7187 207.484 44.5625 205.828 43.6875C204.203 42.8125 202.391 42.1406 200.391 41.6719C198.422 41.1719 196.5 40.7344 194.625 40.3594C191.875 39.8281 189.219 39.1406 186.656 38.2969C184.094 37.4219 181.828 36.25 179.859 34.7812C177.922 33.3125 176.344 31.4844 175.125 29.2969C173.937 27.1094 173.344 24.4063 173.344 21.1875C173.344 18.3125 173.859 15.6406 174.891 13.1719C175.953 10.7031 177.453 8.60937 179.391 6.89062C181.359 5.14062 183.719 3.76563 186.469 2.76562C189.219 1.73438 192.328 1.21875 195.797 1.21875C199.828 1.21875 203.766 1.59375 207.609 2.34375C211.453 3.0625 215.109 4.51563 218.578 6.70312L214.266 14.5781C211.297 12.8281 208.219 11.5781 205.031 10.8281C201.844 10.0781 198.734 9.70312 195.703 9.70312C193.891 9.70312 192.172 9.9375 190.547 10.4062C188.953 10.875 187.547 11.5938 186.328 12.5625C185.141 13.5312 184.188 14.7656 183.469 16.2656C182.781 17.7656 182.438 19.4844 182.438 21.4219C182.438 23.3594 182.937 24.9375 183.938 26.1562C184.938 27.3437 186.203 28.3281 187.734 29.1094C189.297 29.8906 190.984 30.5156 192.797 30.9844C194.609 31.4531 196.312 31.8594 197.906 32.2031C200.812 32.8594 203.641 33.6094 206.391 34.4531C209.141 35.2969 211.594 36.4688 213.75 37.9688C215.906 39.4375 217.641 41.3438 218.953 43.6875C220.266 46.0312 220.922 49.0469 220.922 52.7344C220.922 55.8281 220.328 58.6094 219.141 61.0781C217.984 63.5469 216.312 65.6406 214.125 67.3594C211.937 69.0469 209.328 70.3438 206.297 71.25C203.266 72.1562 199.906 72.6094 196.219 72.6094C191.438 72.6094 186.953 71.9375 182.766 70.5938C178.578 69.2188 174.531 67.0312 170.625 64.0312ZM230.109 72V2.53125H276.469V11.0156H239.391V33.0469H271.125V41.4375H239.391V63.6562H276.469V72H230.109ZM285.891 72V2.53125H314.672C318.141 2.53125 321.125 3.15625 323.625 4.40625C326.156 5.65625 328.219 7.28125 329.812 9.28125C331.437 11.25 332.609 13.4688 333.328 15.9375C334.078 18.375 334.453 20.8437 334.453 23.3438C334.453 25.2812 334.188 27.2031 333.656 29.1094C333.125 31.0156 332.313 32.8125 331.219 34.5C330.156 36.1562 328.859 37.6875 327.328 39.0938C325.828 40.4687 324.109 41.5625 322.172 42.375L335.156 72H324.844L313.125 44.1094H295.125V72H285.891ZM295.125 35.5312H312.797C316.453 35.5312 319.422 34.4531 321.703 32.2969C324.016 30.1406 325.172 27.1562 325.172 23.3438C325.172 19.5625 324.016 16.5625 321.703 14.3438C319.391 12.125 316.422 11.0156 312.797 11.0156H295.125V35.5312ZM338.766 2.53125H348.938L359.156 35.0625L365.906 57.6562H366.516L373.547 33.8906L383.438 2.53125H393.656L371.25 72H361.172L338.766 2.53125ZM402.75 72V2.53125H412.031V72H402.75ZM425.578 49.9219V24.5156C425.578 21.0156 426.266 17.875 427.641 15.0938C429.016 12.3125 430.844 9.9375 433.125 7.96875C435.406 5.96875 438.063 4.45312 441.094 3.42188C444.125 2.39062 447.313 1.875 450.656 1.875C454.438 1.875 457.969 2.375 461.25 3.375C464.531 4.375 467.484 5.95312 470.109 8.10938L465.469 15.3281C463.656 13.7969 461.375 12.5937 458.625 11.7188C455.906 10.8438 453.25 10.4062 450.656 10.4062C448.719 10.4062 446.797 10.7187 444.891 11.3438C442.984 11.9375 441.297 12.875 439.828 14.1562C438.359 15.4062 437.172 17.0469 436.266 19.0781C435.359 21.0781 434.906 23.5312 434.906 26.4375V48.1406C434.906 50.9531 435.375 53.3906 436.312 55.4531C437.25 57.4844 438.453 59.1406 439.922 60.4219C441.422 61.6719 443.094 62.6094 444.938 63.2344C446.781 63.8281 448.609 64.125 450.422 64.125C453.047 64.125 455.719 63.7656 458.438 63.0469C461.156 62.2969 463.594 61.0469 465.75 59.2969L470.203 66.4219C468.047 68.1719 465.25 69.6562 461.812 70.875C458.375 72.0938 454.656 72.7031 450.656 72.7031C447.313 72.7031 444.109 72.1875 441.047 71.1562C437.984 70.125 435.312 68.6406 433.031 66.7031C430.75 64.7344 428.938 62.3438 427.594 59.5312C426.25 56.6875 425.578 53.4844 425.578 49.9219ZM479.297 72V2.53125H525.656V11.0156H488.578V33.0469H520.312V41.4375H488.578V63.6562H525.656V72H479.297Z" fill="#222222"/>
</svg>
