<?xml version="1.0" standalone="yes"?>
<svg xmlns="http://www.w3.org/2000/svg" version="1.1" width="256" height="256">
  <rect x="0" y="0" width="256" height="256" style="fill:#ffffff;shape-rendering:crispEdges;"/>
  <path x="0" y="0" style="fill:#000000;shape-rendering:crispEdges;" d="M27.68,27.68 V34.59 H34.59 V27.68 H27.68 Z M34.59,27.68 V34.59 H41.51 V27.68 H34.59 Z M41.51,27.68 V34.59 H48.43 V27.68 H41.51 Z M48.43,27.68 V34.59 H55.35 V27.68 H48.43 Z M55.35,27.68 V34.59 H62.27 V27.68 H55.35 Z M62.27,27.68 V34.59 H69.19 V27.68 H62.27 Z M69.19,27.68 V34.59 H76.11 V27.68 H69.19 Z M83.03,27.68 V34.59 H89.95 V27.68 H83.03 Z M89.95,27.68 V34.59 H96.86 V27.68 H89.95 Z M103.78,27.68 V34.59 H110.70 V27.68 H103.78 Z M117.62,27.68 V34.59 H124.54 V27.68 H117.62 Z M131.46,27.68 V34.59 H138.38 V27.68 H131.46 Z M138.38,27.68 V34.59 H145.30 V27.68 H138.38 Z M152.22,27.68 V34.59 H159.14 V27.68 H152.22 Z M166.05,27.68 V34.59 H172.97 V27.68 H166.05 Z M179.89,27.68 V34.59 H186.81 V27.68 H179.89 Z M186.81,27.68 V34.59 H193.73 V27.68 H186.81 Z M193.73,27.68 V34.59 H200.65 V27.68 H193.73 Z M200.65,27.68 V34.59 H207.57 V27.68 H200.65 Z M207.57,27.68 V34.59 H214.49 V27.68 H207.57 Z M214.49,27.68 V34.59 H221.41 V27.68 H214.49 Z M221.41,27.68 V34.59 H228.32 V27.68 H221.41 Z M27.68,34.59 V41.51 H34.59 V34.59 H27.68 Z M69.19,34.59 V41.51 H76.11 V34.59 H69.19 Z M96.86,34.59 V41.51 H103.78 V34.59 H96.86 Z M179.89,34.59 V41.51 H186.81 V34.59 H179.89 Z M221.41,34.59 V41.51 H228.32 V34.59 H221.41 Z M27.68,41.51 V48.43 H34.59 V41.51 H27.68 Z M41.51,41.51 V48.43 H48.43 V41.51 H41.51 Z M48.43,41.51 V48.43 H55.35 V41.51 H48.43 Z M55.35,41.51 V48.43 H62.27 V41.51 H55.35 Z M69.19,41.51 V48.43 H76.11 V41.51 H69.19 Z M103.78,41.51 V48.43 H110.70 V41.51 H103.78 Z M117.62,41.51 V48.43 H124.54 V41.51 H117.62 Z M124.54,41.51 V48.43 H131.46 V41.51 H124.54 Z M131.46,41.51 V48.43 H138.38 V41.51 H131.46 Z M138.38,41.51 V48.43 H145.30 V41.51 H138.38 Z M152.22,41.51 V48.43 H159.14 V41.51 H152.22 Z M166.05,41.51 V48.43 H172.97 V41.51 H166.05 Z M179.89,41.51 V48.43 H186.81 V41.51 H179.89 Z M193.73,41.51 V48.43 H200.65 V41.51 H193.73 Z M200.65,41.51 V48.43 H207.57 V41.51 H200.65 Z M207.57,41.51 V48.43 H214.49 V41.51 H207.57 Z M221.41,41.51 V48.43 H228.32 V41.51 H221.41 Z M27.68,48.43 V55.35 H34.59 V48.43 H27.68 Z M41.51,48.43 V55.35 H48.43 V48.43 H41.51 Z M48.43,48.43 V55.35 H55.35 V48.43 H48.43 Z M55.35,48.43 V55.35 H62.27 V48.43 H55.35 Z M69.19,48.43 V55.35 H76.11 V48.43 H69.19 Z M83.03,48.43 V55.35 H89.95 V48.43 H83.03 Z M89.95,48.43 V55.35 H96.86 V48.43 H89.95 Z M117.62,48.43 V55.35 H124.54 V48.43 H117.62 Z M124.54,48.43 V55.35 H131.46 V48.43 H124.54 Z M131.46,48.43 V55.35 H138.38 V48.43 H131.46 Z M145.30,48.43 V55.35 H152.22 V48.43 H145.30 Z M152.22,48.43 V55.35 H159.14 V48.43 H152.22 Z M159.14,48.43 V55.35 H166.05 V48.43 H159.14 Z M166.05,48.43 V55.35 H172.97 V48.43 H166.05 Z M179.89,48.43 V55.35 H186.81 V48.43 H179.89 Z M193.73,48.43 V55.35 H200.65 V48.43 H193.73 Z M200.65,48.43 V55.35 H207.57 V48.43 H200.65 Z M207.57,48.43 V55.35 H214.49 V48.43 H207.57 Z M221.41,48.43 V55.35 H228.32 V48.43 H221.41 Z M27.68,55.35 V62.27 H34.59 V55.35 H27.68 Z M41.51,55.35 V62.27 H48.43 V55.35 H41.51 Z M48.43,55.35 V62.27 H55.35 V55.35 H48.43 Z M55.35,55.35 V62.27 H62.27 V55.35 H55.35 Z M69.19,55.35 V62.27 H76.11 V55.35 H69.19 Z M96.86,55.35 V62.27 H103.78 V55.35 H96.86 Z M110.70,55.35 V62.27 H117.62 V55.35 H110.70 Z M131.46,55.35 V62.27 H138.38 V55.35 H131.46 Z M138.38,55.35 V62.27 H145.30 V55.35 H138.38 Z M152.22,55.35 V62.27 H159.14 V55.35 H152.22 Z M159.14,55.35 V62.27 H166.05 V55.35 H159.14 Z M179.89,55.35 V62.27 H186.81 V55.35 H179.89 Z M193.73,55.35 V62.27 H200.65 V55.35 H193.73 Z M200.65,55.35 V62.27 H207.57 V55.35 H200.65 Z M207.57,55.35 V62.27 H214.49 V55.35 H207.57 Z M221.41,55.35 V62.27 H228.32 V55.35 H221.41 Z M27.68,62.27 V69.19 H34.59 V62.27 H27.68 Z M69.19,62.27 V69.19 H76.11 V62.27 H69.19 Z M83.03,62.27 V69.19 H89.95 V62.27 H83.03 Z M117.62,62.27 V69.19 H124.54 V62.27 H117.62 Z M131.46,62.27 V69.19 H138.38 V62.27 H131.46 Z M152.22,62.27 V69.19 H159.14 V62.27 H152.22 Z M179.89,62.27 V69.19 H186.81 V62.27 H179.89 Z M221.41,62.27 V69.19 H228.32 V62.27 H221.41 Z M27.68,69.19 V76.11 H34.59 V69.19 H27.68 Z M34.59,69.19 V76.11 H41.51 V69.19 H34.59 Z M41.51,69.19 V76.11 H48.43 V69.19 H41.51 Z M48.43,69.19 V76.11 H55.35 V69.19 H48.43 Z M55.35,69.19 V76.11 H62.27 V69.19 H55.35 Z M62.27,69.19 V76.11 H69.19 V69.19 H62.27 Z M69.19,69.19 V76.11 H76.11 V69.19 H69.19 Z M83.03,69.19 V76.11 H89.95 V69.19 H83.03 Z M96.86,69.19 V76.11 H103.78 V69.19 H96.86 Z M110.70,69.19 V76.11 H117.62 V69.19 H110.70 Z M124.54,69.19 V76.11 H131.46 V69.19 H124.54 Z M138.38,69.19 V76.11 H145.30 V69.19 H138.38 Z M152.22,69.19 V76.11 H159.14 V69.19 H152.22 Z M166.05,69.19 V76.11 H172.97 V69.19 H166.05 Z M179.89,69.19 V76.11 H186.81 V69.19 H179.89 Z M186.81,69.19 V76.11 H193.73 V69.19 H186.81 Z M193.73,69.19 V76.11 H200.65 V69.19 H193.73 Z M200.65,69.19 V76.11 H207.57 V69.19 H200.65 Z M207.57,69.19 V76.11 H214.49 V69.19 H207.57 Z M214.49,69.19 V76.11 H221.41 V69.19 H214.49 Z M221.41,69.19 V76.11 H228.32 V69.19 H221.41 Z M96.86,76.11 V83.03 H103.78 V76.11 H96.86 Z M110.70,76.11 V83.03 H117.62 V76.11 H110.70 Z M117.62,76.11 V83.03 H124.54 V76.11 H117.62 Z M124.54,76.11 V83.03 H131.46 V76.11 H124.54 Z M131.46,76.11 V83.03 H138.38 V76.11 H131.46 Z M138.38,76.11 V83.03 H145.30 V76.11 H138.38 Z M145.30,76.11 V83.03 H152.22 V76.11 H145.30 Z M152.22,76.11 V83.03 H159.14 V76.11 H152.22 Z M62.27,83.03 V89.95 H69.19 V83.03 H62.27 Z M69.19,83.03 V89.95 H76.11 V83.03 H69.19 Z M83.03,83.03 V89.95 H89.95 V83.03 H83.03 Z M89.95,83.03 V89.95 H96.86 V83.03 H89.95 Z M96.86,83.03 V89.95 H103.78 V83.03 H96.86 Z M117.62,83.03 V89.95 H124.54 V83.03 H117.62 Z M145.30,83.03 V89.95 H152.22 V83.03 H145.30 Z M152.22,83.03 V89.95 H159.14 V83.03 H152.22 Z M172.97,83.03 V89.95 H179.89 V83.03 H172.97 Z M186.81,83.03 V89.95 H193.73 V83.03 H186.81 Z M200.65,83.03 V89.95 H207.57 V83.03 H200.65 Z M221.41,83.03 V89.95 H228.32 V83.03 H221.41 Z M27.68,89.95 V96.86 H34.59 V89.95 H27.68 Z M34.59,89.95 V96.86 H41.51 V89.95 H34.59 Z M41.51,89.95 V96.86 H48.43 V89.95 H41.51 Z M55.35,89.95 V96.86 H62.27 V89.95 H55.35 Z M89.95,89.95 V96.86 H96.86 V89.95 H89.95 Z M96.86,89.95 V96.86 H103.78 V89.95 H96.86 Z M117.62,89.95 V96.86 H124.54 V89.95 H117.62 Z M124.54,89.95 V96.86 H131.46 V89.95 H124.54 Z M138.38,89.95 V96.86 H145.30 V89.95 H138.38 Z M145.30,89.95 V96.86 H152.22 V89.95 H145.30 Z M166.05,89.95 V96.86 H172.97 V89.95 H166.05 Z M172.97,89.95 V96.86 H179.89 V89.95 H172.97 Z M186.81,89.95 V96.86 H193.73 V89.95 H186.81 Z M193.73,89.95 V96.86 H200.65 V89.95 H193.73 Z M200.65,89.95 V96.86 H207.57 V89.95 H200.65 Z M207.57,89.95 V96.86 H214.49 V89.95 H207.57 Z M48.43,96.86 V103.78 H55.35 V96.86 H48.43 Z M55.35,96.86 V103.78 H62.27 V96.86 H55.35 Z M69.19,96.86 V103.78 H76.11 V96.86 H69.19 Z M76.11,96.86 V103.78 H83.03 V96.86 H76.11 Z M96.86,96.86 V103.78 H103.78 V96.86 H96.86 Z M103.78,96.86 V103.78 H110.70 V96.86 H103.78 Z M110.70,96.86 V103.78 H117.62 V96.86 H110.70 Z M117.62,96.86 V103.78 H124.54 V96.86 H117.62 Z M124.54,96.86 V103.78 H131.46 V96.86 H124.54 Z M131.46,96.86 V103.78 H138.38 V96.86 H131.46 Z M152.22,96.86 V103.78 H159.14 V96.86 H152.22 Z M159.14,96.86 V103.78 H166.05 V96.86 H159.14 Z M186.81,96.86 V103.78 H193.73 V96.86 H186.81 Z M214.49,96.86 V103.78 H221.41 V96.86 H214.49 Z M221.41,96.86 V103.78 H228.32 V96.86 H221.41 Z M27.68,103.78 V110.70 H34.59 V103.78 H27.68 Z M41.51,103.78 V110.70 H48.43 V103.78 H41.51 Z M76.11,103.78 V110.70 H83.03 V103.78 H76.11 Z M103.78,103.78 V110.70 H110.70 V103.78 H103.78 Z M117.62,103.78 V110.70 H124.54 V103.78 H117.62 Z M138.38,103.78 V110.70 H145.30 V103.78 H138.38 Z M152.22,103.78 V110.70 H159.14 V103.78 H152.22 Z M186.81,103.78 V110.70 H193.73 V103.78 H186.81 Z M207.57,103.78 V110.70 H214.49 V103.78 H207.57 Z M221.41,103.78 V110.70 H228.32 V103.78 H221.41 Z M27.68,110.70 V117.62 H34.59 V110.70 H27.68 Z M48.43,110.70 V117.62 H55.35 V110.70 H48.43 Z M55.35,110.70 V117.62 H62.27 V110.70 H55.35 Z M69.19,110.70 V117.62 H76.11 V110.70 H69.19 Z M76.11,110.70 V117.62 H83.03 V110.70 H76.11 Z M103.78,110.70 V117.62 H110.70 V110.70 H103.78 Z M117.62,110.70 V117.62 H124.54 V110.70 H117.62 Z M131.46,110.70 V117.62 H138.38 V110.70 H131.46 Z M179.89,110.70 V117.62 H186.81 V110.70 H179.89 Z M186.81,110.70 V117.62 H193.73 V110.70 H186.81 Z M193.73,110.70 V117.62 H200.65 V110.70 H193.73 Z M200.65,110.70 V117.62 H207.57 V110.70 H200.65 Z M207.57,110.70 V117.62 H214.49 V110.70 H207.57 Z M48.43,117.62 V124.54 H55.35 V117.62 H48.43 Z M76.11,117.62 V124.54 H83.03 V117.62 H76.11 Z M89.95,117.62 V124.54 H96.86 V117.62 H89.95 Z M96.86,117.62 V124.54 H103.78 V117.62 H96.86 Z M103.78,117.62 V124.54 H110.70 V117.62 H103.78 Z M117.62,117.62 V124.54 H124.54 V117.62 H117.62 Z M124.54,117.62 V124.54 H131.46 V117.62 H124.54 Z M138.38,117.62 V124.54 H145.30 V117.62 H138.38 Z M145.30,117.62 V124.54 H152.22 V117.62 H145.30 Z M200.65,117.62 V124.54 H207.57 V117.62 H200.65 Z M207.57,117.62 V124.54 H214.49 V117.62 H207.57 Z M221.41,117.62 V124.54 H228.32 V117.62 H221.41 Z M27.68,124.54 V131.46 H34.59 V124.54 H27.68 Z M41.51,124.54 V131.46 H48.43 V124.54 H41.51 Z M69.19,124.54 V131.46 H76.11 V124.54 H69.19 Z M83.03,124.54 V131.46 H89.95 V124.54 H83.03 Z M96.86,124.54 V131.46 H103.78 V124.54 H96.86 Z M110.70,124.54 V131.46 H117.62 V124.54 H110.70 Z M117.62,124.54 V131.46 H124.54 V124.54 H117.62 Z M124.54,124.54 V131.46 H131.46 V124.54 H124.54 Z M145.30,124.54 V131.46 H152.22 V124.54 H145.30 Z M152.22,124.54 V131.46 H159.14 V124.54 H152.22 Z M159.14,124.54 V131.46 H166.05 V124.54 H159.14 Z M172.97,124.54 V131.46 H179.89 V124.54 H172.97 Z M186.81,124.54 V131.46 H193.73 V124.54 H186.81 Z M207.57,124.54 V131.46 H214.49 V124.54 H207.57 Z M221.41,124.54 V131.46 H228.32 V124.54 H221.41 Z M41.51,131.46 V138.38 H48.43 V131.46 H41.51 Z M62.27,131.46 V138.38 H69.19 V131.46 H62.27 Z M76.11,131.46 V138.38 H83.03 V131.46 H76.11 Z M89.95,131.46 V138.38 H96.86 V131.46 H89.95 Z M96.86,131.46 V138.38 H103.78 V131.46 H96.86 Z M110.70,131.46 V138.38 H117.62 V131.46 H110.70 Z M117.62,131.46 V138.38 H124.54 V131.46 H117.62 Z M131.46,131.46 V138.38 H138.38 V131.46 H131.46 Z M145.30,131.46 V138.38 H152.22 V131.46 H145.30 Z M152.22,131.46 V138.38 H159.14 V131.46 H152.22 Z M166.05,131.46 V138.38 H172.97 V131.46 H166.05 Z M172.97,131.46 V138.38 H179.89 V131.46 H172.97 Z M186.81,131.46 V138.38 H193.73 V131.46 H186.81 Z M200.65,131.46 V138.38 H207.57 V131.46 H200.65 Z M207.57,131.46 V138.38 H214.49 V131.46 H207.57 Z M221.41,131.46 V138.38 H228.32 V131.46 H221.41 Z M34.59,138.38 V145.30 H41.51 V138.38 H34.59 Z M48.43,138.38 V145.30 H55.35 V138.38 H48.43 Z M62.27,138.38 V145.30 H69.19 V138.38 H62.27 Z M69.19,138.38 V145.30 H76.11 V138.38 H69.19 Z M76.11,138.38 V145.30 H83.03 V138.38 H76.11 Z M83.03,138.38 V145.30 H89.95 V138.38 H83.03 Z M89.95,138.38 V145.30 H96.86 V138.38 H89.95 Z M103.78,138.38 V145.30 H110.70 V138.38 H103.78 Z M117.62,138.38 V145.30 H124.54 V138.38 H117.62 Z M145.30,138.38 V145.30 H152.22 V138.38 H145.30 Z M152.22,138.38 V145.30 H159.14 V138.38 H152.22 Z M179.89,138.38 V145.30 H186.81 V138.38 H179.89 Z M193.73,138.38 V145.30 H200.65 V138.38 H193.73 Z M207.57,138.38 V145.30 H214.49 V138.38 H207.57 Z M214.49,138.38 V145.30 H221.41 V138.38 H214.49 Z M221.41,138.38 V145.30 H228.32 V138.38 H221.41 Z M34.59,145.30 V152.22 H41.51 V145.30 H34.59 Z M41.51,145.30 V152.22 H48.43 V145.30 H41.51 Z M48.43,145.30 V152.22 H55.35 V145.30 H48.43 Z M55.35,145.30 V152.22 H62.27 V145.30 H55.35 Z M76.11,145.30 V152.22 H83.03 V145.30 H76.11 Z M83.03,145.30 V152.22 H89.95 V145.30 H83.03 Z M159.14,145.30 V152.22 H166.05 V145.30 H159.14 Z M166.05,145.30 V152.22 H172.97 V145.30 H166.05 Z M179.89,145.30 V152.22 H186.81 V145.30 H179.89 Z M186.81,145.30 V152.22 H193.73 V145.30 H186.81 Z M200.65,145.30 V152.22 H207.57 V145.30 H200.65 Z M207.57,145.30 V152.22 H214.49 V145.30 H207.57 Z M214.49,145.30 V152.22 H221.41 V145.30 H214.49 Z M34.59,152.22 V159.14 H41.51 V152.22 H34.59 Z M48.43,152.22 V159.14 H55.35 V152.22 H48.43 Z M69.19,152.22 V159.14 H76.11 V152.22 H69.19 Z M76.11,152.22 V159.14 H83.03 V152.22 H76.11 Z M89.95,152.22 V159.14 H96.86 V152.22 H89.95 Z M96.86,152.22 V159.14 H103.78 V152.22 H96.86 Z M110.70,152.22 V159.14 H117.62 V152.22 H110.70 Z M152.22,152.22 V159.14 H159.14 V152.22 H152.22 Z M159.14,152.22 V159.14 H166.05 V152.22 H159.14 Z M166.05,152.22 V159.14 H172.97 V152.22 H166.05 Z M172.97,152.22 V159.14 H179.89 V152.22 H172.97 Z M207.57,152.22 V159.14 H214.49 V152.22 H207.57 Z M214.49,152.22 V159.14 H221.41 V152.22 H214.49 Z M221.41,152.22 V159.14 H228.32 V152.22 H221.41 Z M27.68,159.14 V166.05 H34.59 V159.14 H27.68 Z M41.51,159.14 V166.05 H48.43 V159.14 H41.51 Z M48.43,159.14 V166.05 H55.35 V159.14 H48.43 Z M55.35,159.14 V166.05 H62.27 V159.14 H55.35 Z M62.27,159.14 V166.05 H69.19 V159.14 H62.27 Z M96.86,159.14 V166.05 H103.78 V159.14 H96.86 Z M103.78,159.14 V166.05 H110.70 V159.14 H103.78 Z M110.70,159.14 V166.05 H117.62 V159.14 H110.70 Z M166.05,159.14 V166.05 H172.97 V159.14 H166.05 Z M172.97,159.14 V166.05 H179.89 V159.14 H172.97 Z M200.65,159.14 V166.05 H207.57 V159.14 H200.65 Z M207.57,159.14 V166.05 H214.49 V159.14 H207.57 Z M214.49,159.14 V166.05 H221.41 V159.14 H214.49 Z M27.68,166.05 V172.97 H34.59 V166.05 H27.68 Z M34.59,166.05 V172.97 H41.51 V166.05 H34.59 Z M48.43,166.05 V172.97 H55.35 V166.05 H48.43 Z M62.27,166.05 V172.97 H69.19 V166.05 H62.27 Z M69.19,166.05 V172.97 H76.11 V166.05 H69.19 Z M76.11,166.05 V172.97 H83.03 V166.05 H76.11 Z M83.03,166.05 V172.97 H89.95 V166.05 H83.03 Z M103.78,166.05 V172.97 H110.70 V166.05 H103.78 Z M117.62,166.05 V172.97 H124.54 V166.05 H117.62 Z M124.54,166.05 V172.97 H131.46 V166.05 H124.54 Z M131.46,166.05 V172.97 H138.38 V166.05 H131.46 Z M138.38,166.05 V172.97 H145.30 V166.05 H138.38 Z M145.30,166.05 V172.97 H152.22 V166.05 H145.30 Z M159.14,166.05 V172.97 H166.05 V166.05 H159.14 Z M166.05,166.05 V172.97 H172.97 V166.05 H166.05 Z M172.97,166.05 V172.97 H179.89 V166.05 H172.97 Z M179.89,166.05 V172.97 H186.81 V166.05 H179.89 Z M186.81,166.05 V172.97 H193.73 V166.05 H186.81 Z M193.73,166.05 V172.97 H200.65 V166.05 H193.73 Z M200.65,166.05 V172.97 H207.57 V166.05 H200.65 Z M207.57,166.05 V172.97 H214.49 V166.05 H207.57 Z M214.49,166.05 V172.97 H221.41 V166.05 H214.49 Z M221.41,166.05 V172.97 H228.32 V166.05 H221.41 Z M83.03,172.97 V179.89 H89.95 V172.97 H83.03 Z M103.78,172.97 V179.89 H110.70 V172.97 H103.78 Z M110.70,172.97 V179.89 H117.62 V172.97 H110.70 Z M131.46,172.97 V179.89 H138.38 V172.97 H131.46 Z M145.30,172.97 V179.89 H152.22 V172.97 H145.30 Z M152.22,172.97 V179.89 H159.14 V172.97 H152.22 Z M159.14,172.97 V179.89 H166.05 V172.97 H159.14 Z M166.05,172.97 V179.89 H172.97 V172.97 H166.05 Z M193.73,172.97 V179.89 H200.65 V172.97 H193.73 Z M214.49,172.97 V179.89 H221.41 V172.97 H214.49 Z M221.41,172.97 V179.89 H228.32 V172.97 H221.41 Z M27.68,179.89 V186.81 H34.59 V179.89 H27.68 Z M34.59,179.89 V186.81 H41.51 V179.89 H34.59 Z M41.51,179.89 V186.81 H48.43 V179.89 H41.51 Z M48.43,179.89 V186.81 H55.35 V179.89 H48.43 Z M55.35,179.89 V186.81 H62.27 V179.89 H55.35 Z M62.27,179.89 V186.81 H69.19 V179.89 H62.27 Z M69.19,179.89 V186.81 H76.11 V179.89 H69.19 Z M89.95,179.89 V186.81 H96.86 V179.89 H89.95 Z M110.70,179.89 V186.81 H117.62 V179.89 H110.70 Z M124.54,179.89 V186.81 H131.46 V179.89 H124.54 Z M145.30,179.89 V186.81 H152.22 V179.89 H145.30 Z M166.05,179.89 V186.81 H172.97 V179.89 H166.05 Z M179.89,179.89 V186.81 H186.81 V179.89 H179.89 Z M193.73,179.89 V186.81 H200.65 V179.89 H193.73 Z M200.65,179.89 V186.81 H207.57 V179.89 H200.65 Z M221.41,179.89 V186.81 H228.32 V179.89 H221.41 Z M27.68,186.81 V193.73 H34.59 V186.81 H27.68 Z M69.19,186.81 V193.73 H76.11 V186.81 H69.19 Z M83.03,186.81 V193.73 H89.95 V186.81 H83.03 Z M96.86,186.81 V193.73 H103.78 V186.81 H96.86 Z M138.38,186.81 V193.73 H145.30 V186.81 H138.38 Z M145.30,186.81 V193.73 H152.22 V186.81 H145.30 Z M152.22,186.81 V193.73 H159.14 V186.81 H152.22 Z M159.14,186.81 V193.73 H166.05 V186.81 H159.14 Z M166.05,186.81 V193.73 H172.97 V186.81 H166.05 Z M193.73,186.81 V193.73 H200.65 V186.81 H193.73 Z M200.65,186.81 V193.73 H207.57 V186.81 H200.65 Z M221.41,186.81 V193.73 H228.32 V186.81 H221.41 Z M27.68,193.73 V200.65 H34.59 V193.73 H27.68 Z M41.51,193.73 V200.65 H48.43 V193.73 H41.51 Z M48.43,193.73 V200.65 H55.35 V193.73 H48.43 Z M55.35,193.73 V200.65 H62.27 V193.73 H55.35 Z M69.19,193.73 V200.65 H76.11 V193.73 H69.19 Z M96.86,193.73 V200.65 H103.78 V193.73 H96.86 Z M124.54,193.73 V200.65 H131.46 V193.73 H124.54 Z M159.14,193.73 V200.65 H166.05 V193.73 H159.14 Z M166.05,193.73 V200.65 H172.97 V193.73 H166.05 Z M172.97,193.73 V200.65 H179.89 V193.73 H172.97 Z M179.89,193.73 V200.65 H186.81 V193.73 H179.89 Z M186.81,193.73 V200.65 H193.73 V193.73 H186.81 Z M193.73,193.73 V200.65 H200.65 V193.73 H193.73 Z M200.65,193.73 V200.65 H207.57 V193.73 H200.65 Z M207.57,193.73 V200.65 H214.49 V193.73 H207.57 Z M214.49,193.73 V200.65 H221.41 V193.73 H214.49 Z M27.68,200.65 V207.57 H34.59 V200.65 H27.68 Z M41.51,200.65 V207.57 H48.43 V200.65 H41.51 Z M48.43,200.65 V207.57 H55.35 V200.65 H48.43 Z M55.35,200.65 V207.57 H62.27 V200.65 H55.35 Z M69.19,200.65 V207.57 H76.11 V200.65 H69.19 Z M89.95,200.65 V207.57 H96.86 V200.65 H89.95 Z M96.86,200.65 V207.57 H103.78 V200.65 H96.86 Z M103.78,200.65 V207.57 H110.70 V200.65 H103.78 Z M117.62,200.65 V207.57 H124.54 V200.65 H117.62 Z M138.38,200.65 V207.57 H145.30 V200.65 H138.38 Z M145.30,200.65 V207.57 H152.22 V200.65 H145.30 Z M159.14,200.65 V207.57 H166.05 V200.65 H159.14 Z M193.73,200.65 V207.57 H200.65 V200.65 H193.73 Z M221.41,200.65 V207.57 H228.32 V200.65 H221.41 Z M27.68,207.57 V214.49 H34.59 V207.57 H27.68 Z M41.51,207.57 V214.49 H48.43 V207.57 H41.51 Z M48.43,207.57 V214.49 H55.35 V207.57 H48.43 Z M55.35,207.57 V214.49 H62.27 V207.57 H55.35 Z M69.19,207.57 V214.49 H76.11 V207.57 H69.19 Z M96.86,207.57 V214.49 H103.78 V207.57 H96.86 Z M103.78,207.57 V214.49 H110.70 V207.57 H103.78 Z M117.62,207.57 V214.49 H124.54 V207.57 H117.62 Z M124.54,207.57 V214.49 H131.46 V207.57 H124.54 Z M152.22,207.57 V214.49 H159.14 V207.57 H152.22 Z M166.05,207.57 V214.49 H172.97 V207.57 H166.05 Z M179.89,207.57 V214.49 H186.81 V207.57 H179.89 Z M186.81,207.57 V214.49 H193.73 V207.57 H186.81 Z M207.57,207.57 V214.49 H214.49 V207.57 H207.57 Z M27.68,214.49 V221.41 H34.59 V214.49 H27.68 Z M69.19,214.49 V221.41 H76.11 V214.49 H69.19 Z M103.78,214.49 V221.41 H110.70 V214.49 H103.78 Z M138.38,214.49 V221.41 H145.30 V214.49 H138.38 Z M152.22,214.49 V221.41 H159.14 V214.49 H152.22 Z M159.14,214.49 V221.41 H166.05 V214.49 H159.14 Z M179.89,214.49 V221.41 H186.81 V214.49 H179.89 Z M214.49,214.49 V221.41 H221.41 V214.49 H214.49 Z M221.41,214.49 V221.41 H228.32 V214.49 H221.41 Z M27.68,221.41 V228.32 H34.59 V221.41 H27.68 Z M34.59,221.41 V228.32 H41.51 V221.41 H34.59 Z M41.51,221.41 V228.32 H48.43 V221.41 H41.51 Z M48.43,221.41 V228.32 H55.35 V221.41 H48.43 Z M55.35,221.41 V228.32 H62.27 V221.41 H55.35 Z M62.27,221.41 V228.32 H69.19 V221.41 H62.27 Z M69.19,221.41 V228.32 H76.11 V221.41 H69.19 Z M89.95,221.41 V228.32 H96.86 V221.41 H89.95 Z M103.78,221.41 V228.32 H110.70 V221.41 H103.78 Z M110.70,221.41 V228.32 H117.62 V221.41 H110.70 Z M124.54,221.41 V228.32 H131.46 V221.41 H124.54 Z M145.30,221.41 V228.32 H152.22 V221.41 H145.30 Z M152.22,221.41 V228.32 H159.14 V221.41 H152.22 Z M172.97,221.41 V228.32 H179.89 V221.41 H172.97 Z M200.65,221.41 V228.32 H207.57 V221.41 H200.65 Z M207.57,221.41 V228.32 H214.49 V221.41 H207.57 Z " /></svg>