<?xml version="1.0" standalone="yes"?>
<svg xmlns="http://www.w3.org/2000/svg" version="1.1" width="256" height="256">
  <rect x="0" y="0" width="256" height="256" style="fill:#ffffff;shape-rendering:crispEdges;"/>
  <path x="0" y="0" style="fill:#000000;shape-rendering:crispEdges;" d="M27.68,27.68 V34.59 H34.59 V27.68 H27.68 Z M34.59,27.68 V34.59 H41.51 V27.68 H34.59 Z M41.51,27.68 V34.59 H48.43 V27.68 H41.51 Z M48.43,27.68 V34.59 H55.35 V27.68 H48.43 Z M55.35,27.68 V34.59 H62.27 V27.68 H55.35 Z M62.27,27.68 V34.59 H69.19 V27.68 H62.27 Z M69.19,27.68 V34.59 H76.11 V27.68 H69.19 Z M83.03,27.68 V34.59 H89.95 V27.68 H83.03 Z M89.95,27.68 V34.59 H96.86 V27.68 H89.95 Z M96.86,27.68 V34.59 H103.78 V27.68 H96.86 Z M110.70,27.68 V34.59 H117.62 V27.68 H110.70 Z M117.62,27.68 V34.59 H124.54 V27.68 H117.62 Z M124.54,27.68 V34.59 H131.46 V27.68 H124.54 Z M131.46,27.68 V34.59 H138.38 V27.68 H131.46 Z M145.30,27.68 V34.59 H152.22 V27.68 H145.30 Z M152.22,27.68 V34.59 H159.14 V27.68 H152.22 Z M159.14,27.68 V34.59 H166.05 V27.68 H159.14 Z M166.05,27.68 V34.59 H172.97 V27.68 H166.05 Z M179.89,27.68 V34.59 H186.81 V27.68 H179.89 Z M186.81,27.68 V34.59 H193.73 V27.68 H186.81 Z M193.73,27.68 V34.59 H200.65 V27.68 H193.73 Z M200.65,27.68 V34.59 H207.57 V27.68 H200.65 Z M207.57,27.68 V34.59 H214.49 V27.68 H207.57 Z M214.49,27.68 V34.59 H221.41 V27.68 H214.49 Z M221.41,27.68 V34.59 H228.32 V27.68 H221.41 Z M27.68,34.59 V41.51 H34.59 V34.59 H27.68 Z M69.19,34.59 V41.51 H76.11 V34.59 H69.19 Z M103.78,34.59 V41.51 H110.70 V34.59 H103.78 Z M117.62,34.59 V41.51 H124.54 V34.59 H117.62 Z M124.54,34.59 V41.51 H131.46 V34.59 H124.54 Z M138.38,34.59 V41.51 H145.30 V34.59 H138.38 Z M179.89,34.59 V41.51 H186.81 V34.59 H179.89 Z M221.41,34.59 V41.51 H228.32 V34.59 H221.41 Z M27.68,41.51 V48.43 H34.59 V41.51 H27.68 Z M41.51,41.51 V48.43 H48.43 V41.51 H41.51 Z M48.43,41.51 V48.43 H55.35 V41.51 H48.43 Z M55.35,41.51 V48.43 H62.27 V41.51 H55.35 Z M69.19,41.51 V48.43 H76.11 V41.51 H69.19 Z M83.03,41.51 V48.43 H89.95 V41.51 H83.03 Z M89.95,41.51 V48.43 H96.86 V41.51 H89.95 Z M103.78,41.51 V48.43 H110.70 V41.51 H103.78 Z M110.70,41.51 V48.43 H117.62 V41.51 H110.70 Z M117.62,41.51 V48.43 H124.54 V41.51 H117.62 Z M138.38,41.51 V48.43 H145.30 V41.51 H138.38 Z M145.30,41.51 V48.43 H152.22 V41.51 H145.30 Z M179.89,41.51 V48.43 H186.81 V41.51 H179.89 Z M193.73,41.51 V48.43 H200.65 V41.51 H193.73 Z M200.65,41.51 V48.43 H207.57 V41.51 H200.65 Z M207.57,41.51 V48.43 H214.49 V41.51 H207.57 Z M221.41,41.51 V48.43 H228.32 V41.51 H221.41 Z M27.68,48.43 V55.35 H34.59 V48.43 H27.68 Z M41.51,48.43 V55.35 H48.43 V48.43 H41.51 Z M48.43,48.43 V55.35 H55.35 V48.43 H48.43 Z M55.35,48.43 V55.35 H62.27 V48.43 H55.35 Z M69.19,48.43 V55.35 H76.11 V48.43 H69.19 Z M83.03,48.43 V55.35 H89.95 V48.43 H83.03 Z M89.95,48.43 V55.35 H96.86 V48.43 H89.95 Z M103.78,48.43 V55.35 H110.70 V48.43 H103.78 Z M110.70,48.43 V55.35 H117.62 V48.43 H110.70 Z M131.46,48.43 V55.35 H138.38 V48.43 H131.46 Z M138.38,48.43 V55.35 H145.30 V48.43 H138.38 Z M166.05,48.43 V55.35 H172.97 V48.43 H166.05 Z M179.89,48.43 V55.35 H186.81 V48.43 H179.89 Z M193.73,48.43 V55.35 H200.65 V48.43 H193.73 Z M200.65,48.43 V55.35 H207.57 V48.43 H200.65 Z M207.57,48.43 V55.35 H214.49 V48.43 H207.57 Z M221.41,48.43 V55.35 H228.32 V48.43 H221.41 Z M27.68,55.35 V62.27 H34.59 V55.35 H27.68 Z M41.51,55.35 V62.27 H48.43 V55.35 H41.51 Z M48.43,55.35 V62.27 H55.35 V55.35 H48.43 Z M55.35,55.35 V62.27 H62.27 V55.35 H55.35 Z M69.19,55.35 V62.27 H76.11 V55.35 H69.19 Z M83.03,55.35 V62.27 H89.95 V55.35 H83.03 Z M110.70,55.35 V62.27 H117.62 V55.35 H110.70 Z M124.54,55.35 V62.27 H131.46 V55.35 H124.54 Z M131.46,55.35 V62.27 H138.38 V55.35 H131.46 Z M138.38,55.35 V62.27 H145.30 V55.35 H138.38 Z M145.30,55.35 V62.27 H152.22 V55.35 H145.30 Z M152.22,55.35 V62.27 H159.14 V55.35 H152.22 Z M159.14,55.35 V62.27 H166.05 V55.35 H159.14 Z M179.89,55.35 V62.27 H186.81 V55.35 H179.89 Z M193.73,55.35 V62.27 H200.65 V55.35 H193.73 Z M200.65,55.35 V62.27 H207.57 V55.35 H200.65 Z M207.57,55.35 V62.27 H214.49 V55.35 H207.57 Z M221.41,55.35 V62.27 H228.32 V55.35 H221.41 Z M27.68,62.27 V69.19 H34.59 V62.27 H27.68 Z M69.19,62.27 V69.19 H76.11 V62.27 H69.19 Z M83.03,62.27 V69.19 H89.95 V62.27 H83.03 Z M89.95,62.27 V69.19 H96.86 V62.27 H89.95 Z M103.78,62.27 V69.19 H110.70 V62.27 H103.78 Z M117.62,62.27 V69.19 H124.54 V62.27 H117.62 Z M152.22,62.27 V69.19 H159.14 V62.27 H152.22 Z M166.05,62.27 V69.19 H172.97 V62.27 H166.05 Z M179.89,62.27 V69.19 H186.81 V62.27 H179.89 Z M221.41,62.27 V69.19 H228.32 V62.27 H221.41 Z M27.68,69.19 V76.11 H34.59 V69.19 H27.68 Z M34.59,69.19 V76.11 H41.51 V69.19 H34.59 Z M41.51,69.19 V76.11 H48.43 V69.19 H41.51 Z M48.43,69.19 V76.11 H55.35 V69.19 H48.43 Z M55.35,69.19 V76.11 H62.27 V69.19 H55.35 Z M62.27,69.19 V76.11 H69.19 V69.19 H62.27 Z M69.19,69.19 V76.11 H76.11 V69.19 H69.19 Z M83.03,69.19 V76.11 H89.95 V69.19 H83.03 Z M96.86,69.19 V76.11 H103.78 V69.19 H96.86 Z M110.70,69.19 V76.11 H117.62 V69.19 H110.70 Z M124.54,69.19 V76.11 H131.46 V69.19 H124.54 Z M138.38,69.19 V76.11 H145.30 V69.19 H138.38 Z M152.22,69.19 V76.11 H159.14 V69.19 H152.22 Z M166.05,69.19 V76.11 H172.97 V69.19 H166.05 Z M179.89,69.19 V76.11 H186.81 V69.19 H179.89 Z M186.81,69.19 V76.11 H193.73 V69.19 H186.81 Z M193.73,69.19 V76.11 H200.65 V69.19 H193.73 Z M200.65,69.19 V76.11 H207.57 V69.19 H200.65 Z M207.57,69.19 V76.11 H214.49 V69.19 H207.57 Z M214.49,69.19 V76.11 H221.41 V69.19 H214.49 Z M221.41,69.19 V76.11 H228.32 V69.19 H221.41 Z M103.78,76.11 V83.03 H110.70 V76.11 H103.78 Z M110.70,76.11 V83.03 H117.62 V76.11 H110.70 Z M117.62,76.11 V83.03 H124.54 V76.11 H117.62 Z M124.54,76.11 V83.03 H131.46 V76.11 H124.54 Z M145.30,76.11 V83.03 H152.22 V76.11 H145.30 Z M152.22,76.11 V83.03 H159.14 V76.11 H152.22 Z M41.51,83.03 V89.95 H48.43 V83.03 H41.51 Z M48.43,83.03 V89.95 H55.35 V83.03 H48.43 Z M55.35,83.03 V89.95 H62.27 V83.03 H55.35 Z M62.27,83.03 V89.95 H69.19 V83.03 H62.27 Z M69.19,83.03 V89.95 H76.11 V83.03 H69.19 Z M76.11,83.03 V89.95 H83.03 V83.03 H76.11 Z M89.95,83.03 V89.95 H96.86 V83.03 H89.95 Z M96.86,83.03 V89.95 H103.78 V83.03 H96.86 Z M117.62,83.03 V89.95 H124.54 V83.03 H117.62 Z M131.46,83.03 V89.95 H138.38 V83.03 H131.46 Z M145.30,83.03 V89.95 H152.22 V83.03 H145.30 Z M166.05,83.03 V89.95 H172.97 V83.03 H166.05 Z M172.97,83.03 V89.95 H179.89 V83.03 H172.97 Z M186.81,83.03 V89.95 H193.73 V83.03 H186.81 Z M193.73,83.03 V89.95 H200.65 V83.03 H193.73 Z M200.65,83.03 V89.95 H207.57 V83.03 H200.65 Z M207.57,83.03 V89.95 H214.49 V83.03 H207.57 Z M221.41,83.03 V89.95 H228.32 V83.03 H221.41 Z M34.59,89.95 V96.86 H41.51 V89.95 H34.59 Z M41.51,89.95 V96.86 H48.43 V89.95 H41.51 Z M48.43,89.95 V96.86 H55.35 V89.95 H48.43 Z M62.27,89.95 V96.86 H69.19 V89.95 H62.27 Z M76.11,89.95 V96.86 H83.03 V89.95 H76.11 Z M83.03,89.95 V96.86 H89.95 V89.95 H83.03 Z M89.95,89.95 V96.86 H96.86 V89.95 H89.95 Z M117.62,89.95 V96.86 H124.54 V89.95 H117.62 Z M131.46,89.95 V96.86 H138.38 V89.95 H131.46 Z M138.38,89.95 V96.86 H145.30 V89.95 H138.38 Z M152.22,89.95 V96.86 H159.14 V89.95 H152.22 Z M159.14,89.95 V96.86 H166.05 V89.95 H159.14 Z M172.97,89.95 V96.86 H179.89 V89.95 H172.97 Z M179.89,89.95 V96.86 H186.81 V89.95 H179.89 Z M207.57,89.95 V96.86 H214.49 V89.95 H207.57 Z M27.68,96.86 V103.78 H34.59 V96.86 H27.68 Z M41.51,96.86 V103.78 H48.43 V96.86 H41.51 Z M48.43,96.86 V103.78 H55.35 V96.86 H48.43 Z M69.19,96.86 V103.78 H76.11 V96.86 H69.19 Z M76.11,96.86 V103.78 H83.03 V96.86 H76.11 Z M83.03,96.86 V103.78 H89.95 V96.86 H83.03 Z M96.86,96.86 V103.78 H103.78 V96.86 H96.86 Z M103.78,96.86 V103.78 H110.70 V96.86 H103.78 Z M110.70,96.86 V103.78 H117.62 V96.86 H110.70 Z M117.62,96.86 V103.78 H124.54 V96.86 H117.62 Z M131.46,96.86 V103.78 H138.38 V96.86 H131.46 Z M145.30,96.86 V103.78 H152.22 V96.86 H145.30 Z M152.22,96.86 V103.78 H159.14 V96.86 H152.22 Z M166.05,96.86 V103.78 H172.97 V96.86 H166.05 Z M186.81,96.86 V103.78 H193.73 V96.86 H186.81 Z M200.65,96.86 V103.78 H207.57 V96.86 H200.65 Z M221.41,96.86 V103.78 H228.32 V96.86 H221.41 Z M41.51,103.78 V110.70 H48.43 V103.78 H41.51 Z M48.43,103.78 V110.70 H55.35 V103.78 H48.43 Z M96.86,103.78 V110.70 H103.78 V103.78 H96.86 Z M103.78,103.78 V110.70 H110.70 V103.78 H103.78 Z M110.70,103.78 V110.70 H117.62 V103.78 H110.70 Z M124.54,103.78 V110.70 H131.46 V103.78 H124.54 Z M131.46,103.78 V110.70 H138.38 V103.78 H131.46 Z M145.30,103.78 V110.70 H152.22 V103.78 H145.30 Z M159.14,103.78 V110.70 H166.05 V103.78 H159.14 Z M166.05,103.78 V110.70 H172.97 V103.78 H166.05 Z M172.97,103.78 V110.70 H179.89 V103.78 H172.97 Z M179.89,103.78 V110.70 H186.81 V103.78 H179.89 Z M200.65,103.78 V110.70 H207.57 V103.78 H200.65 Z M41.51,110.70 V117.62 H48.43 V110.70 H41.51 Z M48.43,110.70 V117.62 H55.35 V110.70 H48.43 Z M55.35,110.70 V117.62 H62.27 V110.70 H55.35 Z M62.27,110.70 V117.62 H69.19 V110.70 H62.27 Z M69.19,110.70 V117.62 H76.11 V110.70 H69.19 Z M83.03,110.70 V117.62 H89.95 V110.70 H83.03 Z M96.86,110.70 V117.62 H103.78 V110.70 H96.86 Z M103.78,110.70 V117.62 H110.70 V110.70 H103.78 Z M110.70,110.70 V117.62 H117.62 V110.70 H110.70 Z M138.38,110.70 V117.62 H145.30 V110.70 H138.38 Z M145.30,110.70 V117.62 H152.22 V110.70 H145.30 Z M152.22,110.70 V117.62 H159.14 V110.70 H152.22 Z M166.05,110.70 V117.62 H172.97 V110.70 H166.05 Z M172.97,110.70 V117.62 H179.89 V110.70 H172.97 Z M55.35,117.62 V124.54 H62.27 V117.62 H55.35 Z M62.27,117.62 V124.54 H69.19 V117.62 H62.27 Z M76.11,117.62 V124.54 H83.03 V117.62 H76.11 Z M117.62,117.62 V124.54 H124.54 V117.62 H117.62 Z M124.54,117.62 V124.54 H131.46 V117.62 H124.54 Z M131.46,117.62 V124.54 H138.38 V117.62 H131.46 Z M172.97,117.62 V124.54 H179.89 V117.62 H172.97 Z M179.89,117.62 V124.54 H186.81 V117.62 H179.89 Z M186.81,117.62 V124.54 H193.73 V117.62 H186.81 Z M41.51,124.54 V131.46 H48.43 V124.54 H41.51 Z M55.35,124.54 V131.46 H62.27 V124.54 H55.35 Z M62.27,124.54 V131.46 H69.19 V124.54 H62.27 Z M69.19,124.54 V131.46 H76.11 V124.54 H69.19 Z M83.03,124.54 V131.46 H89.95 V124.54 H83.03 Z M103.78,124.54 V131.46 H110.70 V124.54 H103.78 Z M117.62,124.54 V131.46 H124.54 V124.54 H117.62 Z M124.54,124.54 V131.46 H131.46 V124.54 H124.54 Z M138.38,124.54 V131.46 H145.30 V124.54 H138.38 Z M159.14,124.54 V131.46 H166.05 V124.54 H159.14 Z M172.97,124.54 V131.46 H179.89 V124.54 H172.97 Z M179.89,124.54 V131.46 H186.81 V124.54 H179.89 Z M193.73,124.54 V131.46 H200.65 V124.54 H193.73 Z M221.41,124.54 V131.46 H228.32 V124.54 H221.41 Z M27.68,131.46 V138.38 H34.59 V131.46 H27.68 Z M55.35,131.46 V138.38 H62.27 V131.46 H55.35 Z M62.27,131.46 V138.38 H69.19 V131.46 H62.27 Z M76.11,131.46 V138.38 H83.03 V131.46 H76.11 Z M83.03,131.46 V138.38 H89.95 V131.46 H83.03 Z M89.95,131.46 V138.38 H96.86 V131.46 H89.95 Z M117.62,131.46 V138.38 H124.54 V131.46 H117.62 Z M124.54,131.46 V138.38 H131.46 V131.46 H124.54 Z M131.46,131.46 V138.38 H138.38 V131.46 H131.46 Z M138.38,131.46 V138.38 H145.30 V131.46 H138.38 Z M145.30,131.46 V138.38 H152.22 V131.46 H145.30 Z M172.97,131.46 V138.38 H179.89 V131.46 H172.97 Z M179.89,131.46 V138.38 H186.81 V131.46 H179.89 Z M186.81,131.46 V138.38 H193.73 V131.46 H186.81 Z M193.73,131.46 V138.38 H200.65 V131.46 H193.73 Z M200.65,131.46 V138.38 H207.57 V131.46 H200.65 Z M27.68,138.38 V145.30 H34.59 V138.38 H27.68 Z M41.51,138.38 V145.30 H48.43 V138.38 H41.51 Z M48.43,138.38 V145.30 H55.35 V138.38 H48.43 Z M62.27,138.38 V145.30 H69.19 V138.38 H62.27 Z M69.19,138.38 V145.30 H76.11 V138.38 H69.19 Z M89.95,138.38 V145.30 H96.86 V138.38 H89.95 Z M103.78,138.38 V145.30 H110.70 V138.38 H103.78 Z M110.70,138.38 V145.30 H117.62 V138.38 H110.70 Z M124.54,138.38 V145.30 H131.46 V138.38 H124.54 Z M145.30,138.38 V145.30 H152.22 V138.38 H145.30 Z M159.14,138.38 V145.30 H166.05 V138.38 H159.14 Z M166.05,138.38 V145.30 H172.97 V138.38 H166.05 Z M179.89,138.38 V145.30 H186.81 V138.38 H179.89 Z M200.65,138.38 V145.30 H207.57 V138.38 H200.65 Z M214.49,138.38 V145.30 H221.41 V138.38 H214.49 Z M221.41,138.38 V145.30 H228.32 V138.38 H221.41 Z M34.59,145.30 V152.22 H41.51 V145.30 H34.59 Z M48.43,145.30 V152.22 H55.35 V145.30 H48.43 Z M55.35,145.30 V152.22 H62.27 V145.30 H55.35 Z M89.95,145.30 V152.22 H96.86 V145.30 H89.95 Z M117.62,145.30 V152.22 H124.54 V145.30 H117.62 Z M124.54,145.30 V152.22 H131.46 V145.30 H124.54 Z M131.46,145.30 V152.22 H138.38 V145.30 H131.46 Z M172.97,145.30 V152.22 H179.89 V145.30 H172.97 Z M179.89,145.30 V152.22 H186.81 V145.30 H179.89 Z M186.81,145.30 V152.22 H193.73 V145.30 H186.81 Z M27.68,152.22 V159.14 H34.59 V152.22 H27.68 Z M41.51,152.22 V159.14 H48.43 V152.22 H41.51 Z M48.43,152.22 V159.14 H55.35 V152.22 H48.43 Z M62.27,152.22 V159.14 H69.19 V152.22 H62.27 Z M69.19,152.22 V159.14 H76.11 V152.22 H69.19 Z M96.86,152.22 V159.14 H103.78 V152.22 H96.86 Z M110.70,152.22 V159.14 H117.62 V152.22 H110.70 Z M117.62,152.22 V159.14 H124.54 V152.22 H117.62 Z M131.46,152.22 V159.14 H138.38 V152.22 H131.46 Z M145.30,152.22 V159.14 H152.22 V152.22 H145.30 Z M152.22,152.22 V159.14 H159.14 V152.22 H152.22 Z M166.05,152.22 V159.14 H172.97 V152.22 H166.05 Z M186.81,152.22 V159.14 H193.73 V152.22 H186.81 Z M200.65,152.22 V159.14 H207.57 V152.22 H200.65 Z M207.57,152.22 V159.14 H214.49 V152.22 H207.57 Z M221.41,152.22 V159.14 H228.32 V152.22 H221.41 Z M55.35,159.14 V166.05 H62.27 V159.14 H55.35 Z M89.95,159.14 V166.05 H96.86 V159.14 H89.95 Z M117.62,159.14 V166.05 H124.54 V159.14 H117.62 Z M131.46,159.14 V166.05 H138.38 V159.14 H131.46 Z M138.38,159.14 V166.05 H145.30 V159.14 H138.38 Z M145.30,159.14 V166.05 H152.22 V159.14 H145.30 Z M166.05,159.14 V166.05 H172.97 V159.14 H166.05 Z M179.89,159.14 V166.05 H186.81 V159.14 H179.89 Z M186.81,159.14 V166.05 H193.73 V159.14 H186.81 Z M200.65,159.14 V166.05 H207.57 V159.14 H200.65 Z M207.57,159.14 V166.05 H214.49 V159.14 H207.57 Z M221.41,159.14 V166.05 H228.32 V159.14 H221.41 Z M27.68,166.05 V172.97 H34.59 V166.05 H27.68 Z M48.43,166.05 V172.97 H55.35 V166.05 H48.43 Z M69.19,166.05 V172.97 H76.11 V166.05 H69.19 Z M83.03,166.05 V172.97 H89.95 V166.05 H83.03 Z M103.78,166.05 V172.97 H110.70 V166.05 H103.78 Z M110.70,166.05 V172.97 H117.62 V166.05 H110.70 Z M124.54,166.05 V172.97 H131.46 V166.05 H124.54 Z M131.46,166.05 V172.97 H138.38 V166.05 H131.46 Z M152.22,166.05 V172.97 H159.14 V166.05 H152.22 Z M159.14,166.05 V172.97 H166.05 V166.05 H159.14 Z M166.05,166.05 V172.97 H172.97 V166.05 H166.05 Z M172.97,166.05 V172.97 H179.89 V166.05 H172.97 Z M179.89,166.05 V172.97 H186.81 V166.05 H179.89 Z M186.81,166.05 V172.97 H193.73 V166.05 H186.81 Z M193.73,166.05 V172.97 H200.65 V166.05 H193.73 Z M200.65,166.05 V172.97 H207.57 V166.05 H200.65 Z M207.57,166.05 V172.97 H214.49 V166.05 H207.57 Z M214.49,166.05 V172.97 H221.41 V166.05 H214.49 Z M96.86,172.97 V179.89 H103.78 V172.97 H96.86 Z M103.78,172.97 V179.89 H110.70 V172.97 H103.78 Z M124.54,172.97 V179.89 H131.46 V172.97 H124.54 Z M131.46,172.97 V179.89 H138.38 V172.97 H131.46 Z M138.38,172.97 V179.89 H145.30 V172.97 H138.38 Z M145.30,172.97 V179.89 H152.22 V172.97 H145.30 Z M159.14,172.97 V179.89 H166.05 V172.97 H159.14 Z M166.05,172.97 V179.89 H172.97 V172.97 H166.05 Z M193.73,172.97 V179.89 H200.65 V172.97 H193.73 Z M207.57,172.97 V179.89 H214.49 V172.97 H207.57 Z M214.49,172.97 V179.89 H221.41 V172.97 H214.49 Z M27.68,179.89 V186.81 H34.59 V179.89 H27.68 Z M34.59,179.89 V186.81 H41.51 V179.89 H34.59 Z M41.51,179.89 V186.81 H48.43 V179.89 H41.51 Z M48.43,179.89 V186.81 H55.35 V179.89 H48.43 Z M55.35,179.89 V186.81 H62.27 V179.89 H55.35 Z M62.27,179.89 V186.81 H69.19 V179.89 H62.27 Z M69.19,179.89 V186.81 H76.11 V179.89 H69.19 Z M83.03,179.89 V186.81 H89.95 V179.89 H83.03 Z M89.95,179.89 V186.81 H96.86 V179.89 H89.95 Z M117.62,179.89 V186.81 H124.54 V179.89 H117.62 Z M145.30,179.89 V186.81 H152.22 V179.89 H145.30 Z M152.22,179.89 V186.81 H159.14 V179.89 H152.22 Z M159.14,179.89 V186.81 H166.05 V179.89 H159.14 Z M166.05,179.89 V186.81 H172.97 V179.89 H166.05 Z M179.89,179.89 V186.81 H186.81 V179.89 H179.89 Z M193.73,179.89 V186.81 H200.65 V179.89 H193.73 Z M207.57,179.89 V186.81 H214.49 V179.89 H207.57 Z M221.41,179.89 V186.81 H228.32 V179.89 H221.41 Z M27.68,186.81 V193.73 H34.59 V186.81 H27.68 Z M69.19,186.81 V193.73 H76.11 V186.81 H69.19 Z M83.03,186.81 V193.73 H89.95 V186.81 H83.03 Z M89.95,186.81 V193.73 H96.86 V186.81 H89.95 Z M96.86,186.81 V193.73 H103.78 V186.81 H96.86 Z M117.62,186.81 V193.73 H124.54 V186.81 H117.62 Z M124.54,186.81 V193.73 H131.46 V186.81 H124.54 Z M131.46,186.81 V193.73 H138.38 V186.81 H131.46 Z M138.38,186.81 V193.73 H145.30 V186.81 H138.38 Z M145.30,186.81 V193.73 H152.22 V186.81 H145.30 Z M152.22,186.81 V193.73 H159.14 V186.81 H152.22 Z M166.05,186.81 V193.73 H172.97 V186.81 H166.05 Z M193.73,186.81 V193.73 H200.65 V186.81 H193.73 Z M207.57,186.81 V193.73 H214.49 V186.81 H207.57 Z M214.49,186.81 V193.73 H221.41 V186.81 H214.49 Z M221.41,186.81 V193.73 H228.32 V186.81 H221.41 Z M27.68,193.73 V200.65 H34.59 V193.73 H27.68 Z M41.51,193.73 V200.65 H48.43 V193.73 H41.51 Z M48.43,193.73 V200.65 H55.35 V193.73 H48.43 Z M55.35,193.73 V200.65 H62.27 V193.73 H55.35 Z M69.19,193.73 V200.65 H76.11 V193.73 H69.19 Z M83.03,193.73 V200.65 H89.95 V193.73 H83.03 Z M89.95,193.73 V200.65 H96.86 V193.73 H89.95 Z M96.86,193.73 V200.65 H103.78 V193.73 H96.86 Z M103.78,193.73 V200.65 H110.70 V193.73 H103.78 Z M117.62,193.73 V200.65 H124.54 V193.73 H117.62 Z M124.54,193.73 V200.65 H131.46 V193.73 H124.54 Z M131.46,193.73 V200.65 H138.38 V193.73 H131.46 Z M145.30,193.73 V200.65 H152.22 V193.73 H145.30 Z M166.05,193.73 V200.65 H172.97 V193.73 H166.05 Z M172.97,193.73 V200.65 H179.89 V193.73 H172.97 Z M179.89,193.73 V200.65 H186.81 V193.73 H179.89 Z M186.81,193.73 V200.65 H193.73 V193.73 H186.81 Z M193.73,193.73 V200.65 H200.65 V193.73 H193.73 Z M207.57,193.73 V200.65 H214.49 V193.73 H207.57 Z M27.68,200.65 V207.57 H34.59 V200.65 H27.68 Z M41.51,200.65 V207.57 H48.43 V200.65 H41.51 Z M48.43,200.65 V207.57 H55.35 V200.65 H48.43 Z M55.35,200.65 V207.57 H62.27 V200.65 H55.35 Z M69.19,200.65 V207.57 H76.11 V200.65 H69.19 Z M83.03,200.65 V207.57 H89.95 V200.65 H83.03 Z M117.62,200.65 V207.57 H124.54 V200.65 H117.62 Z M131.46,200.65 V207.57 H138.38 V200.65 H131.46 Z M159.14,200.65 V207.57 H166.05 V200.65 H159.14 Z M172.97,200.65 V207.57 H179.89 V200.65 H172.97 Z M179.89,200.65 V207.57 H186.81 V200.65 H179.89 Z M186.81,200.65 V207.57 H193.73 V200.65 H186.81 Z M193.73,200.65 V207.57 H200.65 V200.65 H193.73 Z M214.49,200.65 V207.57 H221.41 V200.65 H214.49 Z M27.68,207.57 V214.49 H34.59 V207.57 H27.68 Z M41.51,207.57 V214.49 H48.43 V207.57 H41.51 Z M48.43,207.57 V214.49 H55.35 V207.57 H48.43 Z M55.35,207.57 V214.49 H62.27 V207.57 H55.35 Z M69.19,207.57 V214.49 H76.11 V207.57 H69.19 Z M83.03,207.57 V214.49 H89.95 V207.57 H83.03 Z M110.70,207.57 V214.49 H117.62 V207.57 H110.70 Z M117.62,207.57 V214.49 H124.54 V207.57 H117.62 Z M124.54,207.57 V214.49 H131.46 V207.57 H124.54 Z M138.38,207.57 V214.49 H145.30 V207.57 H138.38 Z M145.30,207.57 V214.49 H152.22 V207.57 H145.30 Z M166.05,207.57 V214.49 H172.97 V207.57 H166.05 Z M193.73,207.57 V214.49 H200.65 V207.57 H193.73 Z M207.57,207.57 V214.49 H214.49 V207.57 H207.57 Z M221.41,207.57 V214.49 H228.32 V207.57 H221.41 Z M27.68,214.49 V221.41 H34.59 V214.49 H27.68 Z M69.19,214.49 V221.41 H76.11 V214.49 H69.19 Z M96.86,214.49 V221.41 H103.78 V214.49 H96.86 Z M103.78,214.49 V221.41 H110.70 V214.49 H103.78 Z M110.70,214.49 V221.41 H117.62 V214.49 H110.70 Z M124.54,214.49 V221.41 H131.46 V214.49 H124.54 Z M159.14,214.49 V221.41 H166.05 V214.49 H159.14 Z M166.05,214.49 V221.41 H172.97 V214.49 H166.05 Z M193.73,214.49 V221.41 H200.65 V214.49 H193.73 Z M207.57,214.49 V221.41 H214.49 V214.49 H207.57 Z M214.49,214.49 V221.41 H221.41 V214.49 H214.49 Z M27.68,221.41 V228.32 H34.59 V221.41 H27.68 Z M34.59,221.41 V228.32 H41.51 V221.41 H34.59 Z M41.51,221.41 V228.32 H48.43 V221.41 H41.51 Z M48.43,221.41 V228.32 H55.35 V221.41 H48.43 Z M55.35,221.41 V228.32 H62.27 V221.41 H55.35 Z M62.27,221.41 V228.32 H69.19 V221.41 H62.27 Z M69.19,221.41 V228.32 H76.11 V221.41 H69.19 Z M89.95,221.41 V228.32 H96.86 V221.41 H89.95 Z M103.78,221.41 V228.32 H110.70 V221.41 H103.78 Z M117.62,221.41 V228.32 H124.54 V221.41 H117.62 Z M145.30,221.41 V228.32 H152.22 V221.41 H145.30 Z M159.14,221.41 V228.32 H166.05 V221.41 H159.14 Z M166.05,221.41 V228.32 H172.97 V221.41 H166.05 Z M172.97,221.41 V228.32 H179.89 V221.41 H172.97 Z M193.73,221.41 V228.32 H200.65 V221.41 H193.73 Z " /></svg>